# Eden/NFS5 PlayStation V3D geometry
# type 2, version 0x11
mtllib bloc245_sub2.mtl

# vertices for mesh_00_id_0
v 55 20 -35
v 59 18 -63
v 57 -21 -175
v 48 -4 -168
v 54 12 -131
v 48 -17 -173
v 34 -19 -173
v 50 5 -158
v 40 -6 -161
v 43 6 -120
v -55 20 -35
v -59 18 -63
v -56 -21 -175
v -48 -4 -168
v -54 12 -131
v -48 -17 -173
v -36 -19 -173
v -50 5 -158
v -42 -6 -161
v -43 7 -120
v 0 -20 -179
v 0 25 -50
v 0 11 -122
v 0 -8 -170
v 31 22 -41
v 25 -9 -163
v -31 22 -41
v -24 -9 -163
v 68 -40 -177
v 0 -40 -185
v 82 -40 -143
v 0 -28 -182
v 37 -27 -176
v 38 -40 -177
v -68 -40 -177
v -82 -40 -143
v -37 -27 -176
v -38 -40 -177
v 81 -52 -146
v -81 -52 -146
v -70 18 -25
v -72 -44 -48
v -85 -21 -54
v -68 18 -17
v -85 -0 -51
v -81 15 -40
v -84 -42 -53
v -73 18 -19
v 70 16 -25
v 72 -44 -48
v 85 -21 -54
v 68 18 -17
v 85 -0 -51
v 81 12 -40
v 84 -42 -53
v 73 18 -19
v -89 -14 -81
v -88 -30 -71
v -84 -55 -68
v -86 -14 -132
v -84 -28 -141
v -68 19 -51
v -68 -2 -165
v -61 1 -164
v -79 7 -132
v -68 -16 -171
v -88 -8 -106
v -67 13 -132
v -75 3 -157
v -64 7 -158
v -79 -11 -160
v -69 -27 -174
v -78 -29 -163
v -86 -30 -68
v -84 -55 -66
v -84 -28 -144
v -89 -4 -81
v -87 -5 -132
v 89 -14 -81
v 88 -30 -71
v 84 -55 -68
v 86 -14 -132
v 84 -28 -141
v 68 19 -51
v 68 -2 -165
v 61 1 -164
v 78 7 -132
v 68 -16 -171
v 88 -8 -106
v 67 13 -132
v 73 3 -157
v 64 7 -158
v 79 -11 -160
v 69 -27 -174
v 78 -29 -163
v 86 -30 -68
v 84 -55 -66
v 84 -28 -144
v 89 -4 -81
v 89 -5 -132
v 24 33 140
v 57 48 15
v 52 56 3
v 0 60 -8
v 0 63 19
v 50 58 22
v 57 49 -3
v 0 54 -18
v 56 49 31
v 60 45 3
v 57 50 11
v 56 52 32
v -57 48 15
v -52 56 3
v -50 58 22
v -57 49 -3
v -56 49 31
v -60 45 3
v -57 51 11
v -56 52 32
v 55 46 61
v 0 50 103
v 47 46 101
v 56 36 89
v 0 59 67
v 47 55 64
v 59 27 104
v 55 49 60
v 56 40 90
v 59 28 106
v 55 47 56
v -55 46 61
v -47 46 101
v -56 36 89
v -47 55 64
v -59 27 104
v -55 49 60
v -56 40 90
v -59 28 106
v -55 46 56
v -86 -51 -134
v 0 -52 -187
v -45 -51 -182
v 45 -51 -182
v 77 -52 -168
v -78 -52 -166
v 64 19 -25
v -64 19 -25
v 79 -50 160
v 67 -48 189
v -79 -50 160
v -67 -48 189
v 0 -47 216
v 43 -47 211
v -43 -47 213
v 0 34 142
v 47 29 138
v -47 29 138
v -24 33 140
v -86 -21 65
v -82 -0 64
v -78 11 63
v -65 15 60
v -85 -42 64
v -85 -21 -54
v -73 18 -19
v -85 -0 -51
v -81 15 -40
v -84 -42 -53
v -68 18 -17
v -65 15 60
v -68 18 -17
v -66 15 55
v 86 -21 65
v 82 -0 64
v 78 10 63
v 65 15 60
v 85 -42 64
v 85 -21 -54
v 73 18 -19
v 85 -0 -51
v 81 12 -40
v 84 -42 -53
v 68 18 -17
v 65 15 60
v 68 18 -17
v 65 15 55
v -87 -55 -64
v -84 -55 -68
v 87 -55 -65
v 85 -51 -135
v 84 -55 -68
v -80 -54 74
v -80 -54 77
v -62 19 110
v -65 9 150
v 80 -54 77
v 80 -54 77
v 62 19 110
v 65 7 150
v 23 27 154
v 24 33 140
v 80 -54 74
v 0 -9 203
v 0 8 186
v 0 -33 214
v 40 -11 199
v 42 2 185
v 79 -37 160
v 59 -33 206
v 40 -33 212
v 0 34 142
v 0 27 155
v 46 22 148
v 47 29 138
v -40 -11 199
v -42 2 185
v -79 -37 160
v -59 -33 206
v -40 -33 212
v -46 22 148
v -47 29 138
v -24 33 140
v -23 27 154
v 76 -51 166
v -76 -51 166
v -86 -21 65
v -82 -0 64
v -78 11 63
v -85 -42 64
v -65 15 60
v 86 -21 65
v 82 -0 64
v 78 10 63
v 85 -42 64
v 65 15 60
v -80 -54 77
v -83 -43 79
v -78 7 103
v -63 -22 197
v -66 -8 179
v -82 -22 151
v -86 -24 88
v -85 -13 119
v -72 1 153
v -55 -2 183
v -84 -15 136
v -87 -15 102
v -76 5 128
v -62 17 101
v -62 19 110
v -65 9 150
v -80 -54 74
v -86 -26 80
v -82 -26 160
v -82 -7 136
v -84 -11 103
v 80 -54 77
v 83 -43 79
v 79 6 103
v 63 -22 197
v 66 -8 179
v 82 -22 151
v 86 -24 88
v 85 -13 119
v 72 2 153
v 55 -2 183
v 84 -15 136
v 87 -15 102
v 76 5 128
v 62 17 101
v 62 19 110
v 65 7 150
v 86 -26 80
v 82 -26 160
v 82 -7 136
v 84 -7 102
v 24 33 140
v 47 46 101
v 0 50 103
v -47 46 101
v -34 48 102
v 34 48 102
v 0 34 142
v 47 29 138
v -47 29 138
v -24 33 140
v 57 49 -3
v 48 50 -5
v 0 54 -18
v -57 49 -3
v -48 50 -5
v 57 48 15
v 56 48 31
v 60 45 3
v -57 48 15
v -56 49 31
v -60 45 3
v 55 46 61
v 56 36 89
v 59 28 106
v 55 47 56
v -55 46 61
v -56 36 89
v -59 27 104
v -55 46 56
v 55 20 -35
v 64 19 -25
v 0 25 -50
v 31 22 -41
v -55 20 -35
v -64 18 -24
v -31 22 -41
v -65 15 60
v -68 18 -17
v -66 15 55
v 65 15 60
v 68 18 -17
v 65 15 55
v -62 17 101
v -62 19 110
v 62 17 101
v 62 19 110
v -43 3 -165
v -43 -24 -177
v 43 3 -165
v 43 -24 -177
v -43 -19 204
v -43 -26 208
v 43 -19 204
v 43 -26 208
v -72 3 -162
v -72 -24 -175
v 72 3 -162
v 72 -24 -175
v -50 -19 201
v -50 -27 204
v 50 -19 201
v 50 -27 204
v 63 -33 -173
v 63 -25 -172
v 55 -25 -172
v 55 -33 -174
v -65 -33 -173
v -65 -25 -172
v -58 -25 -172
v -58 -33 -174
v -17 -22 -177
v 17 -22 -177
v 17 -25 -179
v -17 -25 -179
v 0 -21 -180
v 0 -24 -182
v 3 -6 -165
v 0 2 -144
v 0 -8 -169
v 0 -6 -168
v 2 -2 -158
v 0 -1 -160
v -3 -6 -165
v -2 -2 -158
v -53 25 -32
v -51 27 -30
v -21 27 -44
v -23 24 -47
v -14 30 -33
v -13 32 -30
v 17 26 -44
v 15 24 -47
v 51 -13 196
v 40 -11 199
v 40 -16 204
v 51 -17 199
v -51 -13 196
v -40 -11 199
v -40 -16 204
v -51 -17 199
v 0 8 186
v 14 7 185
v 14 23 163
v 14 28 154
v 0 29 154
v 0 23 164
v -14 7 185
v -14 23 163
v -14 28 154
v 16 -0 193
v -16 -0 193
v -16 -2 198
v 16 -2 198
v 0 -0 196
v 0 -2 200
v -43 -19 204
v -43 -26 208
v 43 -19 204
v 43 -26 208
v -84 -0 38
v -84 -0 56
v -86 -5 56
v -87 -5 38
v 84 -0 38
v 84 -0 56
v 86 -5 56
v 87 -5 38
v -50 -19 201
v -50 -27 204
v 50 -19 201
v 50 -27 204
v 25 -16 209
v -24 -16 209
v -24 -26 210
v 25 -26 210
v 0 -16 209
v 0 -26 211
v 0 -38 222
v 0 -33 214
v -43 -38 217
v -43 -47 213
v -54 -38 214
v -56 -47 206
v -59 -33 206
v -40 -33 212
v 0 -47 216
v -63 -40 207
v -62 -48 202
v -79 -37 160
v -79 -50 160
v 43 -38 217
v 43 -47 211
v 54 -38 214
v 56 -47 206
v 59 -33 206
v 40 -33 212
v 63 -40 207
v 62 -48 202
v 79 -37 160
v 79 -50 160
v -18 -15 203
v 19 -15 203
v -18 -9 201
v 19 -9 201
v -17 -14 211
v 17 -14 211
v -17 -10 210
v 17 -10 210
v 0 -44 -190
v 0 -40 -185
v -44 -44 -190
v -45 -51 -186
v -84 -44 -163
v -81 -51 -143
v -82 -40 -143
v -75 -52 -172
v -68 -40 -177
v -79 -44 -174
v -68 -44 -186
v -67 -52 -180
v 0 -52 -187
v -38 -40 -177
v -79 -51 -161
v 44 -44 -190
v 45 -51 -186
v 84 -44 -163
v 81 -51 -143
v 82 -40 -143
v 75 -52 -172
v 68 -40 -177
v 79 -44 -174
v 68 -44 -186
v 67 -52 -180
v 38 -40 -177
v 78 -50 -166
v 56 15 117
v -56 15 117
v 0 -45 60
v 42 22 154
v -7 45 -13
v 7 45 -15
v 8 41 -15
v -8 42 -13
v 0 48 -18
v 0 46 -15
v 0 43 -15
v 57 49 -3
v 0 54 -18
v -56 52 32
v 56 52 32
v -57 49 -3
v 57 49 -0
v -57 49 -0
v 56 40 90
v 55 49 60
v -56 40 90
v -55 49 60
v 55 47 56
v -57 46 56
v 55 20 -35
v 0 25 -50
v 31 22 -41
v -55 20 -35
v -62 19 -28
v -31 22 -41
v 54 20 -22
v -13 11 -18
v 53 11 -19
v -53 21 -24
v -53 11 -18
v -34 27 -26
v -15 21 -26
v -48 23 -24
v -20 23 -26
v -34 10 -19
v 0 -44 -46
v 62 19 -28
v 64 19 -25
v -62 19 -28
v -64 19 -25
v 0 27 155
v 45 22 143
v -45 22 143
v 0 -23 119
v -42 22 154
v 0 29 155
v -21 25 154
v -68 18 -17
v -69 14 -18
v -60 -45 60
v -70 18 -25
v -72 -44 -48
v -66 15 55
v -65 15 60
v -66 15 55
v 68 18 -17
v 67 14 -17
v 65 15 55
v 60 -45 60
v 70 16 -25
v 72 -44 -48
v 65 15 60
v 65 15 55
v -62 17 101
v -59 -22 119
v -62 17 101
v -56 9 150
v 62 17 101
v 59 -22 119
v 62 17 101
v 56 7 150
v 3 -43 -42
v 6 -19 -8
v 5 -16 -25
v 4 -46 -38
v -48 18 69
v -16 18 69
v -7 12 62
v -4 -40 55
v -2 -40 -9
v -57 12 62
v -60 -40 55
v -63 -40 -9
v 48 18 69
v 57 14 62
v 66 -40 53
v 66 -40 -9
v 16 18 69
v 7 12 62
v 4 -40 53
v 2 -40 -9
v -13 19 41
v -55 18 42
v -53 -37 46
v -51 17 58
v -46 -24 24
v -17 16 58
v -16 -37 45
v -22 -24 24
v -14 -36 -40
v -37 -37 -40
v -28 -36 -40
v -33 -39 21
v -51 -38 -38
v -36 26 54
v -56 16 48
v -54 1 51
v -61 8 48
v -49 10 55
v -58 10 14
v -53 19 17
v -60 18 14
v -51 12 14
v -54 10 15
v -50 17 18
v -58 20 15
v -49 25 -5
v -47 14 -4
v -56 19 -6
v -59 11 16
v -54 16 5
v -53 17 -16
v -40 22 -19
v -44 18 -21
v -43 22 -13
v -48 22 -12
v -14 16 44
v -17 6 55
v -9 8 48
v -20 16 52
v -12 -10 20
v -17 -2 16
v -10 -5 15
v -19 -10 18
v -19 -7 20
v -13 -0 20
v -9 -6 16
v -18 -1 -4
v -27 -3 1
v -20 -10 -3
v -14 -13 21
v -20 -9 8
v -24 -8 -13
v -28 4 -17
v -28 -2 -19
v -25 3 -9
v -22 -1 -9

# vertices for mesh_01_id_4
v 79 -72 150
v 79 -72 88
v 79 -8 150
v 79 -10 88
v 61 -72 150
v 61 -72 88
v 61 -10 150
v 61 -10 88
v 61 -41 88
v 61 -16 100
v 61 -10 126
v 61 -27 147
v 61 -54 147
v 61 -71 126
v 61 -65 100
v 79 -41 88
v 79 -16 100
v 79 -10 126
v 79 -27 147
v 79 -54 147
v 79 -71 126
v 79 -65 100

# vertices for mesh_02_id_2
v 79 -71 -75
v 79 -71 -137
v 79 -9 -75
v 79 -9 -137
v 61 -71 -75
v 61 -71 -137
v 61 -9 -75
v 61 -9 -139
v 61 -40 -138
v 61 -16 -126
v 61 -10 -99
v 61 -26 -78
v 61 -54 -78
v 61 -70 -99
v 61 -64 -126
v 79 -40 -138
v 79 -16 -126
v 79 -10 -99
v 79 -26 -78
v 79 -54 -78
v 79 -70 -99
v 79 -64 -126

# vertices for mesh_03_id_3
v -78 -70 88
v -78 -70 150
v -78 -8 88
v -78 -8 150
v -60 -70 88
v -60 -72 150
v -60 -8 88
v -60 -8 150
v -60 -39 150
v -60 -14 138
v -60 -8 112
v -60 -25 91
v -60 -52 91
v -60 -69 112
v -60 -63 138
v -78 -39 150
v -78 -14 138
v -78 -8 112
v -78 -25 91
v -78 -52 91
v -78 -69 112
v -78 -63 138

# vertices for mesh_04_id_1
v -79 -71 -138
v -79 -71 -76
v -79 -9 -140
v -79 -9 -76
v -61 -71 -138
v -61 -71 -76
v -61 -9 -140
v -61 -9 -76
v -61 -40 -76
v -61 -16 -88
v -61 -10 -114
v -61 -26 -136
v -61 -54 -136
v -61 -70 -114
v -61 -64 -88
v -79 -40 -76
v -79 -16 -88
v -79 -10 -114
v -79 -26 -136
v -79 -54 -136
v -79 -70 -114
v -79 -64 -88

# vertices for mesh_05_id_5
v -35 40 56
v -35 44 35
v -35 47 48
v -35 36 33
v -35 30 31
v -41 19 52
v -35 16 42
v -35 24 41
v -35 30 34
v -35 24 35
v -42 44 44
v -42 28 44
v -37 30 34
v -42 37 38
v -37 24 35
v -44 37 49
v -29 19 52
v -27 44 44
v -27 28 44
v -33 30 34
v -28 37 38
v -33 24 35
v -26 37 49
v -35 30 53

# vertices for mesh_06_id_6
v -52 -3.94897461 -10.6584473
v -20 25.7719727 -19.4604492
v -52 25.7719727 -19.4604492
v -20 -3.94897461 -10.6584473

o mesh_00_id_0
usemtl bloc245_sub2_atlas_material_0001
vt 0.815429688 0.984848485
vt 0.81640625 0.984848485
vt 0.815429688 0.96969697
vt 0.816894531 0.962121212
f 4/1 9/2 6/3
f 6/3 9/2 7/4
usemtl bloc245_sub2_atlas_material_0002
vt 0.205566406 0.886363636
vt 0.206054688 0.742424242
vt 0.211425781 0.893939394
vt 0.213378906 0.628787879
f 9/5 26/6 7/7
f 7/7 26/6 21/8
vt 0.158691406 0.962121212
vt 0.159179688 0.818181818
vt 0.187988281 0.886363636
vt 0.188964844 0.628787879
f 1/9 25/10 10/11
f 10/11 25/10 23/12
vt 0.188964844 0.628787879
vt 0.206054688 0.742424242
vt 0.206054688 0.742424242
vt 0.206542969 0.628787879
f 23/13 28/14 26/15
f 26/15 28/14 24/16
usemtl bloc245_sub2_atlas_material_0003
vt 0.528320312 0.939393939
vt 0.534179688 0.939393939
vt 0.528320312 0.939393939
vt 0.534179688 0.931818182
f 32/17 30/18 33/19
f 33/19 30/18 34/20
usemtl bloc245_sub2_atlas_material_0002
vt 0.158691406 0.962121212
vt 0.168457031 0.984848485
vt 0.187988281 0.886363636
vt 0.188964844 0.962121212
f 11/21 12/22 20/23
f 20/23 12/22 15/24
vt 0.158691406 0.962121212
vt 0.187988281 0.886363636
vt 0.159179688 0.818181818
vt 0.188964844 0.628787879
f 11/25 20/26 27/27
f 27/27 20/26 23/28
vt 0.187988281 0.886363636
vt 0.205566406 0.886363636
vt 0.188964844 0.628787879
vt 0.206054688 0.742424242
f 20/29 19/30 23/31
f 23/31 19/30 28/32
vt 0.158691406 0.962121212
vt 0.187988281 0.886363636
vt 0.168457031 0.984848485
vt 0.188964844 0.962121212
f 1/33 10/34 2/35
f 2/35 10/34 5/36
vt 0.187988281 0.886363636
vt 0.205566406 0.886363636
vt 0.188964844 0.962121212
vt 0.199707031 0.916666667
f 10/37 9/38 5/39
f 5/39 9/38 8/40
vt 0.188964844 0.962121212
vt 0.199707031 0.916666667
vt 0.187988281 0.886363636
vt 0.205566406 0.886363636
f 15/41 18/42 20/43
f 20/43 18/42 19/44
usemtl bloc245_sub2_atlas_material_0001
vt 0.815917969 0.96969697
vt 0.81640625 0.977272727
vt 0.81640625 0.977272727
vt 0.81640625 0.96969697
f 32/45 7/46 17/47
f 17/47 7/46 21/48
usemtl bloc245_sub2_atlas_material_0003
vt 0.528320312 0.946969697
vt 0.534179688 0.946969697
vt 0.528320312 0.939393939
vt 0.534179688 0.939393939
f 37/49 38/50 32/51
f 32/51 38/50 30/52
usemtl bloc245_sub2_atlas_material_0002
vt 0.205566406 0.886363636
vt 0.211425781 0.893939394
vt 0.206054688 0.742424242
vt 0.213378906 0.628787879
f 19/53 17/54 28/55
f 28/55 17/54 21/56
vt 0.206054688 0.742424242
vt 0.213378906 0.628787879
vt 0.206542969 0.628787879
vt 0.206054688 0.742424242
f 28/57 21/58 24/59
f 24/59 21/58 26/60
usemtl bloc245_sub2_atlas_material_0001
vt 0.815429688 0.977272727
vt 0.81640625 0.984848485
vt 0.816894531 0.962121212
vt 0.816894531 0.977272727
f 3/61 6/62 33/63
f 33/63 6/62 7/64
usemtl bloc245_sub2_atlas_material_0002
vt 0.187988281 0.886363636
vt 0.188964844 0.628787879
vt 0.205566406 0.886363636
vt 0.206054688 0.742424242
f 10/65 23/66 9/67
f 9/67 23/66 26/68
usemtl bloc245_sub2_atlas_material_0000
vt 0.360839844 0.787878788
vt 0.363769531 0.75
vt 0.360839844 0.871212121
vt 0.364257812 0.833333333
f 47/69 59/70 43/71
f 43/71 59/70 58/72
vt 0.372070312 0.916666667
vt 0.377441406 0.893939394
vt 0.375976562 0.984848485
vt 0.380371094 0.96969697
f 67/73 60/74 65/75
f 65/75 60/74 69/76
vt 0.379882812 0.848484848
vt 0.383300781 0.810606061
vt 0.381347656 0.909090909
vt 0.3828125 0.848484848
f 61/77 36/78 71/79
f 71/79 36/78 73/80
usemtl bloc245_sub2_atlas_material_0001
vt 0.815917969 0.96969697
vt 0.81640625 0.96969697
vt 0.815917969 0.977272727
vt 0.81640625 0.977272727
f 66/81 71/82 72/83
f 72/83 71/82 73/84
vt 0.815429688 0.977272727
vt 0.81640625 0.984848485
vt 0.815429688 0.962121212
vt 0.816894531 0.96969697
f 63/85 69/86 66/87
f 66/87 69/86 71/88
usemtl bloc245_sub2_atlas_material_0003
vt 0.528320312 0.954545455
vt 0.532226562 0.96969697
vt 0.528320312 0.954545455
vt 0.534179688 0.954545455
f 73/89 36/90 72/91
f 72/91 36/90 35/92
usemtl bloc245_sub2_atlas_material_0000
vt 0.377441406 0.893939394
vt 0.379882812 0.848484848
vt 0.380371094 0.96969697
vt 0.381347656 0.909090909
f 60/93 61/94 69/95
f 69/95 61/94 71/96
usemtl bloc245_sub2_atlas_material_0001
vt 0.815429688 0.977272727
vt 0.816894531 0.984848485
vt 0.815429688 0.962121212
vt 0.81640625 0.96969697
f 11/97 44/98 12/99
f 12/99 44/98 62/100
vt 0.815429688 0.984848485
vt 0.816894531 0.984848485
vt 0.815429688 0.984848485
vt 0.816894531 0.984848485
f 68/101 62/102 65/103
f 65/103 62/102 46/104
vt 0.815429688 0.962121212
vt 0.81640625 0.984848485
vt 0.815917969 0.962121212
vt 0.816894531 0.984848485
f 15/105 12/106 68/107
f 68/107 12/106 62/108
vt 0.81640625 0.984848485
vt 0.816894531 0.984848485
vt 0.815429688 0.962121212
vt 0.81640625 0.962121212
f 15/109 68/110 18/111
f 18/111 68/110 70/112
usemtl bloc245_sub2_atlas_material_0000
vt 0.360351562 0.962121212
vt 0.360839844 0.871212121
vt 0.366699219 0.893939394
vt 0.364257812 0.833333333
f 45/113 43/114 57/115
f 57/115 43/114 58/116
usemtl bloc245_sub2_atlas_material_0001
vt 0.816894531 0.984848485
vt 0.816894531 0.984848485
vt 0.816894531 0.984848485
vt 0.816894531 0.984848485
f 48/117 46/118 44/119
f 44/119 46/118 62/120
vt 0.815917969 0.984848485
vt 0.816894531 0.984848485
vt 0.815429688 0.962121212
vt 0.81640625 0.96969697
f 18/121 70/122 14/123
f 14/123 70/122 64/124
usemtl bloc245_sub2_atlas_material_0000
vt 0.360351562 0.962121212
vt 0.366699219 0.893939394
vt 0.375976562 0.984848485
vt 0.372070312 0.916666667
f 45/125 57/126 65/127
f 65/127 57/126 67/128
usemtl bloc245_sub2_atlas_material_0001
vt 0.815917969 0.984848485
vt 0.816894531 0.977272727
vt 0.815429688 0.96969697
vt 0.81640625 0.962121212
f 70/129 69/130 64/131
f 64/131 69/130 63/132
vt 0.815429688 0.984848485
vt 0.815429688 0.984848485
vt 0.815429688 0.977272727
vt 0.815429688 0.984848485
f 70/133 68/134 69/135
f 69/135 68/134 65/136
usemtl bloc245_sub2_atlas_material_0003
vt 0.528320312 0.954545455
vt 0.534179688 0.954545455
vt 0.528320312 0.946969697
vt 0.534179688 0.946969697
f 72/137 35/138 37/139
f 37/139 35/138 38/140
usemtl bloc245_sub2_atlas_material_0001
vt 0.816894531 0.984848485
vt 0.816894531 0.984848485
vt 0.816894531 0.984848485
vt 0.816894531 0.984848485
f 56/141 52/142 54/143
f 54/143 52/142 84/144
vt 0.815917969 0.96969697
vt 0.81640625 0.977272727
vt 0.815917969 0.96969697
vt 0.81640625 0.977272727
f 88/145 94/146 93/147
f 93/147 94/146 95/148
vt 0.815429688 0.984848485
vt 0.815917969 0.96969697
vt 0.815429688 0.962121212
vt 0.816894531 0.962121212
f 88/149 3/150 94/151
f 94/151 3/150 33/152
vt 0.815429688 0.977272727
vt 0.815429688 0.984848485
vt 0.81640625 0.962121212
vt 0.816894531 0.977272727
f 86/153 92/154 4/155
f 4/155 92/154 8/156
usemtl bloc245_sub2_atlas_material_0000
vt 0.360351562 0.962121212
vt 0.375976562 0.984848485
vt 0.366699219 0.893939394
vt 0.372070312 0.916666667
f 53/157 87/158 79/159
f 79/159 87/158 89/160
usemtl bloc245_sub2_atlas_material_0001
vt 0.815429688 0.984848485
vt 0.815429688 0.984848485
vt 0.815429688 0.977272727
vt 0.815429688 0.984848485
f 87/161 90/162 91/163
f 91/163 90/162 92/164
vt 0.815917969 0.984848485
vt 0.816894531 0.984848485
vt 0.815429688 0.96969697
vt 0.81640625 0.962121212
f 90/165 5/166 92/167
f 92/167 5/166 8/168
usemtl bloc245_sub2_atlas_material_0000
vt 0.375976562 0.984848485
vt 0.380371094 0.96969697
vt 0.372070312 0.916666667
vt 0.377441406 0.893939394
f 87/169 91/170 89/171
f 89/171 91/170 82/172
vt 0.381347656 0.909090909
vt 0.3828125 0.848484848
vt 0.379882812 0.848484848
vt 0.383300781 0.810606061
f 93/173 95/174 83/175
f 83/175 95/174 31/176
usemtl bloc245_sub2_atlas_material_0001
vt 0.815429688 0.984848485
vt 0.816894531 0.984848485
vt 0.815429688 0.984848485
vt 0.816894531 0.984848485
f 87/177 54/178 90/179
f 90/179 54/178 84/180
usemtl bloc245_sub2_atlas_material_0000
vt 0.377441406 0.893939394
vt 0.380371094 0.96969697
vt 0.379882812 0.848484848
vt 0.381347656 0.909090909
f 82/181 91/182 83/183
f 83/183 91/182 93/184
vt 0.360351562 0.962121212
vt 0.366699219 0.893939394
vt 0.360839844 0.871212121
vt 0.364257812 0.833333333
f 53/185 79/186 51/187
f 51/187 79/186 80/188
usemtl bloc245_sub2_atlas_material_0001
vt 0.815429688 0.977272727
vt 0.81640625 0.984848485
vt 0.81640625 0.962121212
vt 0.816894531 0.977272727
f 91/189 92/190 85/191
f 85/191 92/190 86/192
vt 0.815429688 0.962121212
vt 0.81640625 0.984848485
vt 0.81640625 0.962121212
vt 0.816894531 0.977272727
f 90/193 84/194 5/195
f 5/195 84/194 2/196
usemtl bloc245_sub2_atlas_material_0003
vt 0.528320312 0.939393939
vt 0.534179688 0.931818182
vt 0.528320312 0.931818182
vt 0.534179688 0.931818182
f 33/197 34/198 94/199
f 94/199 34/198 29/200
usemtl bloc245_sub2_atlas_material_0000
vt 0.360839844 0.787878788
vt 0.360839844 0.871212121
vt 0.363769531 0.75
vt 0.364257812 0.833333333
f 55/201 51/202 81/203
f 81/203 51/202 80/204
usemtl bloc245_sub2_atlas_material_0003
vt 0.528320312 0.931818182
vt 0.534179688 0.931818182
vt 0.528320312 0.924242424
vt 0.532226562 0.909090909
f 94/205 29/206 95/207
f 95/207 29/206 31/208
usemtl bloc245_sub2_atlas_material_0001
vt 0.815429688 0.96969697
vt 0.815917969 0.984848485
vt 0.816894531 0.962121212
vt 0.81640625 0.977272727
f 93/209 91/210 88/211
f 88/211 91/210 85/212
vt 0.815429688 0.96969697
vt 0.81640625 0.984848485
vt 0.815917969 0.962121212
vt 0.816894531 0.977272727
f 84/213 52/214 2/215
f 2/215 52/214 1/216
vt 0.81640625 0.96969697
vt 0.81640625 0.977272727
vt 0.815917969 0.96969697
f 14/217 19/218 18/219
vt 0.815917969 0.96969697
vt 0.81640625 0.977272727
vt 0.815917969 0.977272727
f 16/220 13/221 17/222
vt 0.81640625 0.977272727
vt 0.81640625 0.96969697
vt 0.815917969 0.96969697
f 9/223 4/224 8/225
usemtl bloc245_sub2_atlas_material_0002
vt 0.188964844 0.628787879
vt 0.161621094 0.628787879
vt 0.159179688 0.818181818
f 23/226 22/227 27/228
usemtl bloc245_sub2_atlas_material_0001
vt 0.815917969 0.96969697
vt 0.81640625 0.977272727
vt 0.815917969 0.977272727
f 13/229 37/230 17/231
vt 0.815917969 0.96969697
vt 0.81640625 0.977272727
vt 0.815917969 0.977272727
f 17/232 37/233 32/234
vt 0.81640625 0.96969697
vt 0.81640625 0.977272727
vt 0.815917969 0.96969697
f 14/235 16/236 19/237
vt 0.81640625 0.977272727
vt 0.815917969 0.96969697
vt 0.815917969 0.977272727
f 33/238 7/239 32/240
vt 0.81640625 0.96969697
vt 0.81640625 0.977272727
vt 0.815917969 0.96969697
f 16/241 17/242 19/243
usemtl bloc245_sub2_atlas_material_0002
vt 0.161621094 0.628787879
vt 0.188964844 0.628787879
vt 0.159179688 0.818181818
f 22/244 23/245 25/246
usemtl bloc245_sub2_atlas_material_0001
vt 0.816894531 0.984848485
vt 0.816894531 0.977272727
vt 0.815429688 0.984848485
f 46/247 45/248 65/249
vt 0.815917969 0.96969697
vt 0.81640625 0.977272727
vt 0.815917969 0.977272727
f 37/250 13/251 72/252
vt 0.81640625 0.96969697
vt 0.81640625 0.977272727
vt 0.815917969 0.96969697
f 66/253 72/254 13/255
vt 0.816894531 0.977272727
vt 0.816894531 0.984848485
vt 0.815429688 0.984848485
f 53/256 54/257 87/258
usemtl untextured_black
f 41 49 42
f 42 49 50
f 98 39 96
f 96 39 97
f 96 99 98
f 98 99 100
f 75 40 74
f 74 40 76
f 74 76 77
f 77 76 78
usemtl bloc245_sub2_atlas_material_0006
vt 0.790039062 0.946969697
vt 0.794921875 0.946969697
vt 0.792480469 0.946969697
vt 0.795410156 0.946969697
f 107/259 110/260 111/261
f 111/261 110/260 102/262
vt 0.792480469 0.954545455
vt 0.795410156 0.954545455
vt 0.792480469 0.946969697
vt 0.795410156 0.946969697
f 120/263 117/264 119/265
f 119/265 117/264 113/266
vt 0.792480469 0.946969697
vt 0.795410156 0.946969697
vt 0.792480469 0.954545455
vt 0.795410156 0.954545455
f 111/267 102/268 112/269
f 112/269 102/268 109/270
vt 0.790039062 0.946969697
vt 0.792480469 0.946969697
vt 0.794921875 0.946969697
vt 0.795410156 0.946969697
f 116/271 119/272 118/273
f 118/273 119/272 113/274
usemtl bloc245_sub2_atlas_material_0001
vt 0.815429688 0.984848485
vt 0.815917969 0.984848485
vt 0.816894531 0.984848485
vt 0.816894531 0.984848485
f 103/275 106/276 104/277
f 104/277 106/276 105/278
vt 0.815429688 0.984848485
vt 0.816894531 0.984848485
vt 0.815917969 0.984848485
vt 0.816894531 0.984848485
f 114/279 104/280 115/281
f 115/281 104/280 105/282
vt 0.815429688 0.984848485
vt 0.815917969 0.977272727
vt 0.815917969 0.962121212
vt 0.816894531 0.977272727
f 103/283 104/284 108/285
f 108/285 104/284 114/286
usemtl bloc245_sub2_atlas_material_0006
vt 0.795898438 0.954545455
vt 0.797363281 0.954545455
vt 0.795898438 0.962121212
vt 0.797363281 0.962121212
f 139/287 136/288 138/289
f 138/289 136/288 134/290
vt 0.795898438 0.962121212
vt 0.795898438 0.984848485
vt 0.797363281 0.962121212
vt 0.797363281 0.984848485
f 129/291 128/292 124/293
f 124/293 128/292 121/294
vt 0.795898438 0.962121212
vt 0.797363281 0.962121212
vt 0.795898438 0.954545455
vt 0.797363281 0.954545455
f 129/295 124/296 130/297
f 130/297 124/296 127/298
vt 0.792480469 0.954545455
vt 0.795410156 0.954545455
vt 0.792480469 0.954545455
vt 0.795410156 0.954545455
f 137/299 140/300 120/301
f 120/301 140/300 117/302
vt 0.792480469 0.954545455
vt 0.792480469 0.954545455
vt 0.795410156 0.954545455
vt 0.795410156 0.954545455
f 128/303 112/304 131/305
f 131/305 112/304 109/306
usemtl bloc245_sub2_atlas_material_0001
vt 0.815429688 0.977272727
vt 0.815917969 0.984848485
vt 0.815917969 0.984848485
vt 0.815917969 0.984848485
f 128/307 106/308 112/309
f 112/309 106/308 111/310
vt 0.815917969 0.977272727
vt 0.816894531 0.977272727
vt 0.815917969 0.977272727
vt 0.816894531 0.977272727
f 123/311 122/312 126/313
f 126/313 122/312 125/314
vt 0.815917969 0.977272727
vt 0.816894531 0.977272727
vt 0.815917969 0.977272727
vt 0.816894531 0.984848485
f 126/315 125/316 106/317
f 106/317 125/316 105/318
usemtl bloc245_sub2_atlas_material_0006
vt 0.795898438 0.962121212
vt 0.797363281 0.962121212
vt 0.795898438 0.984848485
vt 0.797363281 0.984848485
f 138/319 134/320 137/321
f 137/321 134/320 132/322
usemtl bloc245_sub2_atlas_material_0001
vt 0.815917969 0.977272727
vt 0.816894531 0.984848485
vt 0.815917969 0.977272727
vt 0.816894531 0.977272727
f 115/323 105/324 135/325
f 135/325 105/324 125/326
vt 0.815429688 0.977272727
vt 0.81640625 0.977272727
vt 0.815917969 0.984848485
vt 0.815917969 0.977272727
f 128/327 123/328 106/329
f 106/329 123/328 126/330
vt 0.815429688 0.977272727
vt 0.815917969 0.984848485
vt 0.815917969 0.984848485
vt 0.815917969 0.984848485
f 137/331 120/332 115/333
f 115/333 120/332 119/334
vt 0.815429688 0.977272727
vt 0.815917969 0.984848485
vt 0.81640625 0.977272727
vt 0.815917969 0.977272727
f 137/335 115/336 133/337
f 133/337 115/336 135/338
vt 0.815917969 0.977272727
vt 0.816894531 0.977272727
vt 0.815917969 0.977272727
vt 0.816894531 0.977272727
f 135/339 125/340 133/341
f 133/341 125/340 122/342
usemtl bloc245_sub2_atlas_material_0007
vt 0.48828125 0.984848485
vt 0.525878906 0.96969697
vt 0.525878906 0.96969697
vt 0.525878906 0.984848485
f 122/343 101/344 159/345
f 159/345 101/344 156/346
vt 0.48828125 0.984848485
vt 0.525878906 0.96969697
vt 0.489746094 0.840909091
vt 0.525878906 0.840909091
f 122/347 159/348 133/349
f 133/349 159/348 158/350
usemtl bloc245_sub2_atlas_material_0001
vt 0.815429688 0.977272727
vt 0.81640625 0.977272727
vt 0.81640625 0.977272727
vt 0.815917969 0.962121212
f 128/351 129/352 123/353
f 123/353 129/352 157/354
usemtl bloc245_sub2_atlas_material_0007
vt 0.48828125 0.984848485
vt 0.489746094 0.840909091
vt 0.525878906 0.96969697
vt 0.525878906 0.840909091
f 122/355 123/356 101/357
f 101/357 123/356 157/358
usemtl bloc245_sub2_atlas_material_0001
vt 0.815429688 0.977272727
vt 0.81640625 0.977272727
vt 0.81640625 0.977272727
vt 0.815917969 0.962121212
f 137/359 133/360 138/361
f 138/361 133/360 158/362
usemtl bloc245_sub2_atlas_material_0004
vt 0.229492188 0.689393939
vt 0.256347656 0.689393939
vt 0.229492188 0.795454545
vt 0.256347656 0.795454545
f 164/363 169/364 160/365
f 160/365 169/364 165/366
vt 0.229980469 0.939393939
vt 0.25390625 0.931818182
vt 0.229980469 0.96969697
vt 0.25390625 0.946969697
f 161/367 167/368 162/369
f 162/369 167/368 168/370
vt 0.229492188 0.795454545
vt 0.256347656 0.795454545
vt 0.229492188 0.916666667
vt 0.256347656 0.916666667
f 160/371 165/372 161/373
f 161/373 165/372 167/374
vt 0.229980469 0.954545455
vt 0.249511719 0.96969697
vt 0.229980469 0.977272727
vt 0.249511719 0.984848485
f 162/375 168/376 163/377
f 163/377 168/376 166/378
usemtl bloc245_sub2_atlas_material_0006
vt 0.790039062 0.946969697
vt 0.794921875 0.946969697
vt 0.791015625 0.939393939
vt 0.795410156 0.939393939
f 116/379 118/380 148/381
f 148/381 118/380 172/382
vt 0.792480469 0.962121212
vt 0.795410156 0.962121212
vt 0.792480469 0.954545455
vt 0.795410156 0.954545455
f 171/383 173/384 132/385
f 132/385 173/384 140/386
usemtl bloc245_sub2_atlas_material_0004
vt 0.229492188 0.795454545
vt 0.256347656 0.795454545
vt 0.229492188 0.689393939
vt 0.256347656 0.689393939
f 174/387 179/388 178/389
f 178/389 179/388 183/390
vt 0.229980469 0.977272727
vt 0.249511719 0.984848485
vt 0.229980469 0.954545455
vt 0.249511719 0.96969697
f 177/391 180/392 176/393
f 176/393 180/392 182/394
vt 0.229980469 0.96969697
vt 0.25390625 0.946969697
vt 0.229980469 0.939393939
vt 0.25390625 0.931818182
f 176/395 182/396 175/397
f 175/397 182/396 181/398
vt 0.229492188 0.916666667
vt 0.256347656 0.916666667
vt 0.229492188 0.795454545
vt 0.256347656 0.795454545
f 175/399 181/400 174/401
f 174/401 181/400 179/402
usemtl bloc245_sub2_atlas_material_0006
vt 0.790039062 0.946969697
vt 0.791015625 0.939393939
vt 0.794921875 0.946969697
vt 0.795410156 0.939393939
f 107/403 147/404 110/405
f 110/405 147/404 186/406
vt 0.792480469 0.954545455
vt 0.795410156 0.954545455
vt 0.792480469 0.962121212
vt 0.795410156 0.962121212
f 121/407 131/408 185/409
f 185/409 131/408 187/410
usemtl bloc245_sub2_atlas_material_0005
vt 0.688964844 0.901515152
vt 0.690917969 0.901515152
vt 0.689453125 0.984848485
vt 0.690429688 0.984848485
f 194/411 189/412 164/413
f 164/413 189/412 169/414
usemtl bloc245_sub2_atlas_material_0001
vt 0.815429688 0.984848485
vt 0.815917969 0.962121212
vt 0.81640625 0.977272727
vt 0.815917969 0.962121212
f 195/415 139/416 196/417
f 196/417 139/416 158/418
usemtl bloc245_sub2_atlas_material_0005
vt 0.688964844 0.901515152
vt 0.689453125 0.984848485
vt 0.690917969 0.901515152
vt 0.690429688 0.984848485
f 198/419 178/420 192/421
f 192/421 178/420 183/422
usemtl bloc245_sub2_atlas_material_0001
vt 0.815429688 0.962121212
vt 0.81640625 0.977272727
vt 0.815917969 0.962121212
vt 0.815917969 0.984848485
f 199/423 200/424 130/425
f 130/425 200/424 157/426
usemtl polygon_colour_808080
vt 0.5 0.625
vt 0.5 0.59375
vt 0.515625 0.65625
vt 0.53515625 0.6640625
f 155/427 153/428 152/429
f 152/429 153/428 151/430
vt 0.5 0.56640625
vt 0.53515625 0.52734375
vt 0.5 0.59375
vt 0.53515625 0.6640625
f 154/431 149/432 153/433
f 153/433 149/432 151/434
vt 0.67578125 0.671875
vt 0.74609375 0.62890625
vt 0.72265625 0.671875
vt 0.7421875 0.66796875
f 188/435 143/436 141/437
f 141/437 143/436 146/438
vt 0.67578125 0.51953125
vt 0.72265625 0.51953125
vt 0.74609375 0.59375
vt 0.74609375 0.5625
f 190/439 191/440 142/441
f 142/441 191/440 144/442
vt 0.67578125 0.671875
vt 0.67578125 0.51953125
vt 0.74609375 0.62890625
vt 0.74609375 0.59375
f 188/443 190/444 143/445
f 143/445 190/444 142/446
vt 0.53515625 0.52734375
vt 0.58984375 0.5234375
vt 0.53515625 0.6640625
vt 0.58984375 0.66796875
f 149/447 197/448 151/449
f 151/449 197/448 193/450
vt 0.58984375 0.66796875
vt 0.58984375 0.5234375
vt 0.67578125 0.671875
vt 0.67578125 0.51953125
f 193/451 197/452 188/453
f 188/453 197/452 190/454
usemtl bloc245_sub2_atlas_material_0001
vt 0.81640625 0.977272727
vt 0.81640625 0.977272727
vt 0.815917969 0.977272727
f 103/455 108/456 107/457
vt 0.815917969 0.984848485
vt 0.815917969 0.984848485
vt 0.815917969 0.984848485
f 103/458 111/459 106/460
vt 0.81640625 0.977272727
vt 0.81640625 0.977272727
vt 0.815917969 0.977272727
f 108/461 114/462 116/463
vt 0.815917969 0.984848485
vt 0.815917969 0.984848485
vt 0.815917969 0.984848485
f 114/464 115/465 119/466
vt 0.81640625 0.977272727
vt 0.81640625 0.977272727
vt 0.815917969 0.977272727
f 111/467 103/468 107/469
vt 0.81640625 0.977272727
vt 0.81640625 0.977272727
vt 0.815917969 0.977272727
f 114/470 119/471 116/472
usemtl bloc245_sub2_atlas_material_0006
vt 0.795410156 0.954545455
vt 0.792480469 0.954545455
vt 0.792480469 0.954545455
f 131/473 121/474 128/475
vt 0.795410156 0.954545455
vt 0.792480469 0.954545455
vt 0.792480469 0.954545455
f 140/476 137/477 132/478
usemtl bloc245_sub2_atlas_material_0001
vt 0.81640625 0.96969697
vt 0.815917969 0.962121212
vt 0.815917969 0.962121212
f 138/479 158/480 139/481
vt 0.815917969 0.962121212
vt 0.81640625 0.96969697
vt 0.815917969 0.962121212
f 157/482 129/483 130/484
usemtl bloc245_sub2_atlas_material_0004
vt 0.249511719 0.962121212
vt 0.249511719 0.977272727
vt 0.229980469 0.962121212
f 166/485 170/486 163/487
vt 0.249511719 0.977272727
vt 0.249511719 0.962121212
vt 0.229980469 0.96969697
f 184/488 180/489 177/490
usemtl bloc245_sub2_atlas_material_0006
vt 0.797363281 0.939393939
vt 0.797363281 0.954545455
vt 0.795898438 0.954545455
f 195/491 136/492 139/493
vt 0.797363281 0.954545455
vt 0.797363281 0.939393939
vt 0.795898438 0.954545455
f 127/494 199/495 130/496
usemtl polygon_colour_808080
vt 0.515625 0.53515625
vt 0.52734375 0.53125
vt 0.5 0.56640625
f 150/497 149/498 154/499
vt 0.72265625 0.51953125
vt 0.7421875 0.5234375
vt 0.74609375 0.5625
f 191/500 145/501 144/502
usemtl bloc245_sub2_atlas_material_0008
vt 0.0541992188 0.507575758
vt 0.0712890625 0.507575758
vt 0.0581054688 0.863636364
vt 0.072265625 0.863636364
f 205/503 204/504 217/505
f 217/505 204/504 216/506
vt 0.0385742188 0.939393939
vt 0.0581054688 0.863636364
vt 0.0405273438 0.734848485
vt 0.0541992188 0.507575758
f 214/507 208/508 201/509
f 201/509 208/508 205/510
vt 0.0405273438 0.734848485
vt 0.041015625 0.507575758
vt 0.0541992188 0.507575758
vt 0.0405273438 0.734848485
f 224/511 213/512 205/513
f 205/513 213/512 201/514
vt 0.0341796875 0.984848485
vt 0.0385742188 0.939393939
vt 0.0346679688 0.742424242
vt 0.0405273438 0.734848485
f 215/515 214/516 202/517
f 202/517 214/516 201/518
vt 0.0385742188 0.939393939
vt 0.0405273438 0.734848485
vt 0.0581054688 0.863636364
vt 0.0541992188 0.507575758
f 221/519 224/520 217/521
f 217/521 224/520 205/522
usemtl bloc245_sub2_atlas_material_0003
vt 0.528320312 0.939393939
vt 0.528320312 0.954545455
vt 0.528320312 0.931818182
vt 0.53125 0.939393939
f 204/523 207/524 216/525
f 216/525 207/524 206/526
usemtl bloc245_sub2_atlas_material_0008
vt 0.0346679688 0.742424242
vt 0.0405273438 0.734848485
vt 0.03515625 0.507575758
vt 0.041015625 0.507575758
f 202/527 201/528 212/529
f 212/529 201/528 213/530
vt 0.0346679688 0.742424242
vt 0.03515625 0.507575758
vt 0.0405273438 0.734848485
vt 0.041015625 0.507575758
f 223/531 212/532 224/533
f 224/533 212/532 213/534
vt 0.0341796875 0.984848485
vt 0.0346679688 0.742424242
vt 0.0385742188 0.939393939
vt 0.0405273438 0.734848485
f 222/535 223/536 221/537
f 221/537 223/536 224/538
vt 0.0581054688 0.863636364
vt 0.072265625 0.863636364
vt 0.0541992188 0.507575758
vt 0.0712890625 0.507575758
f 208/539 207/540 205/541
f 205/541 207/540 204/542
usemtl bloc245_sub2_atlas_material_0009
vt 0.275390625 0.924242424
vt 0.280761719 0.848484848
vt 0.280761719 0.962121212
vt 0.284179688 0.871212121
f 241/543 242/544 245/545
f 245/545 242/544 247/546
vt 0.280761719 0.962121212
vt 0.284179688 0.871212121
vt 0.286132812 0.977272727
vt 0.287597656 0.878787879
f 245/547 247/548 249/549
f 249/549 247/548 244/550
usemtl bloc245_sub2_atlas_material_0003
vt 0.528808594 0.924242424
vt 0.53125 0.931818182
vt 0.53125 0.909090909
vt 0.531738281 0.924242424
f 240/551 220/552 218/553
f 218/553 220/552 219/554
usemtl bloc245_sub2_atlas_material_0009
vt 0.291015625 0.984848485
vt 0.291015625 0.871212121
vt 0.299316406 0.954545455
vt 0.294433594 0.848484848
f 239/555 248/556 228/557
f 228/557 248/556 243/558
vt 0.296386719 0.787878788
vt 0.296386719 0.75
vt 0.299316406 0.871212121
vt 0.299316406 0.78030303
f 238/559 237/560 227/561
f 227/561 237/560 230/562
vt 0.286132812 0.977272727
vt 0.287597656 0.878787879
vt 0.291015625 0.984848485
vt 0.291015625 0.871212121
f 249/563 244/564 239/565
f 239/565 244/564 248/566
vt 0.275390625 0.924242424
vt 0.2734375 0.871212121
vt 0.280761719 0.848484848
vt 0.279296875 0.818181818
f 241/567 240/568 242/569
f 242/569 240/568 218/570
usemtl bloc245_sub2_atlas_material_0001
vt 0.815917969 0.977272727
vt 0.81640625 0.977272727
vt 0.815917969 0.96969697
vt 0.815917969 0.977272727
f 245/571 246/572 241/573
f 241/573 246/572 216/574
usemtl bloc245_sub2_atlas_material_0009
vt 0.294433594 0.848484848
vt 0.296386719 0.787878788
vt 0.299316406 0.954545455
vt 0.299316406 0.871212121
f 243/575 238/576 228/577
f 228/577 238/576 227/578
usemtl bloc245_sub2_atlas_material_0001
vt 0.81640625 0.984848485
vt 0.816894531 0.977272727
vt 0.81640625 0.984848485
vt 0.816894531 0.984848485
f 239/579 228/580 250/581
f 250/581 228/580 229/582
vt 0.815917969 0.96969697
vt 0.81640625 0.977272727
vt 0.81640625 0.96969697
vt 0.81640625 0.96969697
f 246/583 252/584 217/585
f 217/585 252/584 221/586
vt 0.815917969 0.984848485
vt 0.81640625 0.984848485
vt 0.815917969 0.984848485
vt 0.81640625 0.984848485
f 249/587 239/588 252/589
f 252/589 239/588 250/590
vt 0.815429688 0.984848485
vt 0.815917969 0.984848485
vt 0.815917969 0.96969697
vt 0.816894531 0.962121212
f 249/591 252/592 245/593
f 245/593 252/592 246/594
usemtl bloc245_sub2_atlas_material_0009
vt 0.294433594 0.848484848
vt 0.299316406 0.954545455
vt 0.296386719 0.787878788
vt 0.299316406 0.871212121
f 264/595 233/596 259/597
f 259/597 233/596 232/598
vt 0.280761719 0.962121212
vt 0.286132812 0.977272727
vt 0.284179688 0.871212121
vt 0.287597656 0.878787879
f 266/599 270/600 268/601
f 268/601 270/600 265/602
usemtl bloc245_sub2_atlas_material_0001
vt 0.815917969 0.984848485
vt 0.81640625 0.984848485
vt 0.815917969 0.984848485
vt 0.81640625 0.984848485
f 273/603 271/604 270/605
f 270/605 271/604 260/606
usemtl bloc245_sub2_atlas_material_0009
vt 0.286132812 0.977272727
vt 0.291015625 0.984848485
vt 0.287597656 0.878787879
vt 0.291015625 0.871212121
f 270/607 260/608 265/609
f 265/609 260/608 269/610
usemtl bloc245_sub2_atlas_material_0001
vt 0.815917969 0.96969697
vt 0.81640625 0.96969697
vt 0.81640625 0.977272727
vt 0.81640625 0.96969697
f 267/611 208/612 273/613
f 273/613 208/612 214/614
vt 0.815429688 0.962121212
vt 0.81640625 0.977272727
vt 0.81640625 0.96969697
vt 0.816894531 0.984848485
f 267/615 273/616 266/617
f 266/617 273/616 270/618
usemtl bloc245_sub2_atlas_material_0009
vt 0.275390625 0.924242424
vt 0.280761719 0.962121212
vt 0.280761719 0.848484848
vt 0.284179688 0.871212121
f 262/619 266/620 263/621
f 263/621 266/620 268/622
vt 0.291015625 0.984848485
vt 0.299316406 0.954545455
vt 0.291015625 0.871212121
vt 0.294433594 0.848484848
f 260/623 233/624 269/625
f 269/625 233/624 264/626
vt 0.296386719 0.787878788
vt 0.299316406 0.871212121
vt 0.296386719 0.75
vt 0.299316406 0.78030303
f 259/627 232/628 258/629
f 258/629 232/628 235/630
usemtl bloc245_sub2_atlas_material_0001
vt 0.815917969 0.977272727
vt 0.81640625 0.977272727
vt 0.815917969 0.96969697
vt 0.815917969 0.977272727
f 207/631 267/632 262/633
f 262/633 267/632 266/634
usemtl bloc245_sub2_atlas_material_0009
vt 0.275390625 0.924242424
vt 0.280761719 0.848484848
vt 0.2734375 0.871212121
vt 0.279296875 0.818181818
f 262/635 263/636 261/637
f 261/637 263/636 209/638
usemtl bloc245_sub2_atlas_material_0001
vt 0.81640625 0.984848485
vt 0.81640625 0.984848485
vt 0.816894531 0.977272727
vt 0.816894531 0.984848485
f 260/639 271/640 233/641
f 233/641 271/640 234/642
usemtl bloc245_sub2_atlas_material_0003
vt 0.528808594 0.962121212
vt 0.53125 0.977272727
vt 0.53125 0.954545455
vt 0.531738281 0.96969697
f 261/643 209/644 211/645
f 211/645 209/644 210/646
vt 0.53125 0.939393939
vt 0.53125 0.931818182
vt 0.528320312 0.931818182
f 206/647 220/648 216/649
vt 0.53125 0.954545455
vt 0.53125 0.939393939
vt 0.528320312 0.954545455
f 211/650 206/651 207/652
usemtl bloc245_sub2_atlas_material_0001
vt 0.815917969 0.96969697
vt 0.81640625 0.977272727
vt 0.815917969 0.977272727
f 216/653 246/654 217/655
vt 0.81640625 0.977272727
vt 0.815917969 0.984848485
vt 0.815917969 0.96969697
f 252/656 222/657 221/658
vt 0.816894531 0.984848485
vt 0.816894531 0.984848485
vt 0.81640625 0.984848485
f 229/659 231/660 250/661
vt 0.815917969 0.96969697
vt 0.81640625 0.977272727
vt 0.815917969 0.977272727
f 240/662 241/663 216/664
vt 0.81640625 0.977272727
vt 0.81640625 0.96969697
vt 0.815917969 0.96969697
f 252/665 250/666 251/667
usemtl bloc245_sub2_atlas_material_0003
vt 0.53125 0.931818182
vt 0.528808594 0.924242424
vt 0.528320312 0.931818182
f 220/668 240/669 216/670
vt 0.528808594 0.962121212
vt 0.53125 0.954545455
vt 0.528320312 0.954545455
f 261/671 211/672 207/673
usemtl bloc245_sub2_atlas_material_0001
vt 0.81640625 0.977272727
vt 0.815917969 0.96969697
vt 0.815917969 0.977272727
f 267/674 207/675 208/676
vt 0.81640625 0.977272727
vt 0.815917969 0.96969697
vt 0.815917969 0.977272727
f 262/677 261/678 207/679
vt 0.816894531 0.984848485
vt 0.816894531 0.984848485
vt 0.81640625 0.984848485
f 236/680 234/681 271/682
vt 0.81640625 0.977272727
vt 0.815917969 0.96969697
vt 0.815917969 0.984848485
f 273/683 214/684 215/685
vt 0.81640625 0.96969697
vt 0.81640625 0.977272727
vt 0.815917969 0.96969697
f 271/686 273/687 272/688
usemtl untextured_black
f 274 203 275
f 275 203 225
f 277 274 276
f 276 274 275
f 226 253 255
f 255 253 254
f 255 254 256
f 256 254 257
usemtl bloc245_sub2_atlas_material_000a
vt 0.385742188 0.75
vt 0.400878906 0.75
vt 0.385742188 0.984848485
vt 0.400878906 0.984848485
f 333/689 325/690 332/691
f 332/691 325/690 324/692
vt 0.385742188 0.984848485
vt 0.400878906 0.984848485
vt 0.385742188 0.75
vt 0.400878906 0.75
f 334/693 326/694 335/695
f 335/695 326/694 327/696
usemtl bloc245_sub2_atlas_material_0010
vt 0.545898438 0.810606061
vt 0.557128906 0.810606061
vt 0.545898438 0.984848485
vt 0.557128906 0.984848485
f 329/697 337/698 328/699
f 328/699 337/698 336/700
vt 0.545898438 0.810606061
vt 0.545898438 0.984848485
vt 0.557128906 0.810606061
vt 0.557128906 0.984848485
f 331/701 330/702 339/703
f 339/703 330/702 338/704
usemtl bloc245_sub2_atlas_material_0018
vt 0.678710938 0.871212121
vt 0.678710938 0.977272727
vt 0.686035156 0.871212121
vt 0.686035156 0.977272727
f 340/705 341/706 343/707
f 343/707 341/706 342/708
vt 0.678710938 0.871212121
vt 0.686035156 0.871212121
vt 0.678710938 0.977272727
vt 0.686035156 0.977272727
f 344/709 347/710 345/711
f 345/711 347/710 346/712
usemtl bloc245_sub2_atlas_material_0019
vt 0.629882812 0.984848485
vt 0.646972656 0.984848485
vt 0.630371094 0.871212121
vt 0.646972656 0.871212121
f 352/713 348/714 353/715
f 353/715 348/714 351/716
vt 0.612304688 0.871212121
vt 0.612304688 0.984848485
vt 0.630371094 0.871212121
vt 0.629882812 0.984848485
f 350/717 349/718 353/719
f 353/719 349/718 352/720
usemtl bloc245_sub2_atlas_material_001b
vt 0.263671875 0.878787879
vt 0.26953125 0.878787879
vt 0.265136719 0.893939394
vt 0.263671875 0.878787879
f 361/721 357/722 359/723
f 359/723 357/722 358/724
vt 0.263671875 0.878787879
vt 0.26953125 0.878787879
vt 0.270019531 0.795454545
vt 0.270019531 0.878787879
f 358/725 357/726 354/727
f 354/727 357/726 356/728
vt 0.258789062 0.954545455
vt 0.263671875 0.878787879
vt 0.263671875 0.878787879
vt 0.265136719 0.893939394
f 355/729 361/730 358/731
f 358/731 361/730 359/732
vt 0.263671875 0.878787879
vt 0.270019531 0.795454545
vt 0.26953125 0.878787879
vt 0.270019531 0.878787879
f 361/733 360/734 357/735
f 357/735 360/734 356/736
usemtl bloc245_sub2_atlas_material_0016
vt 0.594726562 0.840909091
vt 0.594726562 0.984848485
vt 0.609863281 0.840909091
vt 0.609863281 0.984848485
f 372/737 371/738 373/739
f 373/739 371/738 370/740
vt 0.594726562 0.984848485
vt 0.609863281 0.984848485
vt 0.594726562 0.840909091
vt 0.609863281 0.840909091
f 374/741 375/742 377/743
f 377/743 375/742 376/744
usemtl bloc245_sub2_atlas_material_0017
vt 0.215820312 0.795454545
vt 0.227050781 0.803030303
vt 0.215820312 0.984848485
vt 0.227050781 0.984848485
f 380/745 383/746 381/747
f 381/747 383/746 382/748
vt 0.215820312 0.628787879
vt 0.227050781 0.628787879
vt 0.215820312 0.795454545
vt 0.227050781 0.803030303
f 379/749 378/750 380/751
f 380/751 378/750 383/752
vt 0.215820312 0.984848485
vt 0.227050781 0.984848485
vt 0.215820312 0.795454545
vt 0.227050781 0.803030303
f 386/753 382/754 385/755
f 385/755 382/754 383/756
vt 0.215820312 0.795454545
vt 0.227050781 0.803030303
vt 0.215820312 0.628787879
vt 0.227050781 0.628787879
f 385/757 383/758 384/759
f 384/759 383/758 378/760
usemtl bloc245_sub2_atlas_material_0019
vt 0.629882812 0.871212121
vt 0.629882812 0.96969697
vt 0.646972656 0.886363636
vt 0.646972656 0.984848485
f 392/761 391/762 390/763
f 390/763 391/762 387/764
vt 0.612304688 0.886363636
vt 0.612304688 0.984848485
vt 0.629882812 0.871212121
vt 0.629882812 0.96969697
f 389/765 388/766 392/767
f 392/767 388/766 391/768
usemtl bloc245_sub2_atlas_material_001a
vt 0.573242188 0.840909091
vt 0.592285156 0.840909091
vt 0.573242188 0.984848485
vt 0.592285156 0.984848485
f 399/769 400/770 398/771
f 398/771 400/770 397/772
vt 0.573242188 0.840909091
vt 0.573242188 0.984848485
vt 0.592285156 0.840909091
vt 0.592285156 0.984848485
f 403/773 402/774 404/775
f 404/775 402/774 401/776
usemtl bloc245_sub2_atlas_material_001c
vt 0.559570312 0.810606061
vt 0.570800781 0.810606061
vt 0.559570312 0.984848485
vt 0.570800781 0.984848485
f 394/777 406/778 393/779
f 393/779 406/778 405/780
vt 0.559570312 0.810606061
vt 0.559570312 0.984848485
vt 0.570800781 0.810606061
vt 0.570800781 0.984848485
f 396/781 395/782 408/783
f 408/783 395/782 407/784
usemtl bloc245_sub2_atlas_material_001d
vt 0.756835938 0.901515152
vt 0.772460938 0.984848485
vt 0.772460938 0.901515152
vt 0.787597656 0.984848485
f 411/785 413/786 414/787
f 414/787 413/786 409/788
vt 0.787597656 0.984848485
vt 0.787597656 0.901515152
vt 0.772460938 0.901515152
f 409/789 412/790 414/791
vt 0.756835938 0.984848485
vt 0.772460938 0.984848485
vt 0.756835938 0.901515152
f 410/792 413/793 411/794
usemtl bloc245_sub2_atlas_material_0003
vt 0.533203125 0.924242424
vt 0.543457031 0.924242424
vt 0.533203125 0.916666667
vt 0.543457031 0.916666667
f 417/795 418/796 419/797
f 419/797 418/796 420/798
vt 0.533203125 0.939393939
vt 0.543457031 0.939393939
vt 0.533203125 0.924242424
vt 0.543457031 0.924242424
f 415/799 423/800 417/801
f 417/801 423/800 418/802
vt 0.528320312 0.939393939
vt 0.533203125 0.954545455
vt 0.533203125 0.924242424
vt 0.533203125 0.939393939
f 416/803 428/804 417/805
f 417/805 428/804 415/806
vt 0.528320312 0.916666667
vt 0.528320312 0.924242424
vt 0.533203125 0.916666667
vt 0.533203125 0.916666667
f 421/807 422/808 424/809
f 424/809 422/808 419/810
vt 0.528320312 0.924242424
vt 0.528320312 0.939393939
vt 0.533203125 0.916666667
vt 0.533203125 0.924242424
f 422/811 416/812 419/813
f 419/813 416/812 417/814
vt 0.533203125 0.977272727
vt 0.543457031 0.977272727
vt 0.528320312 0.810606061
vt 0.543457031 0.810606061
f 424/815 425/816 426/817
f 426/817 425/816 427/818
vt 0.533203125 0.916666667
vt 0.543457031 0.916666667
vt 0.533203125 0.916666667
vt 0.543457031 0.916666667
f 419/819 420/820 424/821
f 424/821 420/820 425/822
vt 0.533203125 0.954545455
vt 0.533203125 0.954545455
vt 0.543457031 0.954545455
vt 0.543457031 0.954545455
f 428/823 430/824 429/825
f 429/825 430/824 431/826
vt 0.533203125 0.954545455
vt 0.543457031 0.954545455
vt 0.533203125 0.939393939
vt 0.543457031 0.939393939
f 428/827 429/828 415/829
f 415/829 429/828 423/830
vt 0.528320312 0.954545455
vt 0.533203125 0.954545455
vt 0.528320312 0.946969697
vt 0.533203125 0.954545455
f 432/831 434/832 433/833
f 433/833 434/832 430/834
vt 0.528320312 0.946969697
vt 0.533203125 0.954545455
vt 0.528320312 0.939393939
vt 0.533203125 0.954545455
f 433/835 430/836 416/837
f 416/837 430/836 428/838
vt 0.528320312 0.810606061
vt 0.543457031 0.810606061
vt 0.533203125 0.977272727
vt 0.543457031 0.977272727
f 436/839 437/840 434/841
f 434/841 437/840 435/842
vt 0.533203125 0.954545455
vt 0.543457031 0.954545455
vt 0.533203125 0.954545455
vt 0.543457031 0.954545455
f 434/843 435/844 430/845
f 430/845 435/844 431/846
vt 0.528320312 0.977272727
vt 0.533203125 0.977272727
vt 0.528320312 0.810606061
f 421/847 424/848 426/849
vt 0.528320312 0.810606061
vt 0.533203125 0.977272727
vt 0.528320312 0.977272727
f 436/850 434/851 432/852
usemtl bloc245_sub2_atlas_material_001e
vt 0.650390625 0.871212121
vt 0.650390625 0.954545455
vt 0.675292969 0.871212121
vt 0.675292969 0.954545455
f 442/853 444/854 443/855
f 443/855 444/854 445/856
vt 0.675292969 0.954545455
vt 0.676269531 0.962121212
vt 0.675292969 0.886363636
vt 0.676269531 0.871212121
f 445/857 441/858 443/859
f 443/859 441/858 439/860
vt 0.650390625 0.984848485
vt 0.675292969 0.984848485
vt 0.650390625 0.954545455
vt 0.675292969 0.954545455
f 440/861 441/862 444/863
f 444/863 441/862 445/864
vt 0.675292969 0.954545455
vt 0.675292969 0.886363636
vt 0.676269531 0.962121212
vt 0.676269531 0.871212121
f 444/865 442/866 440/867
f 440/867 442/866 438/868
usemtl bloc245_sub2_atlas_material_0003
vt 0.530273438 0.909090909
vt 0.528320312 0.810606061
vt 0.534667969 0.909090909
vt 0.533691406 0.856060606
f 454/869 452/870 455/871
f 455/871 452/870 450/872
vt 0.534667969 0.924242424
vt 0.534667969 0.909090909
vt 0.543457031 0.924242424
vt 0.543457031 0.893939394
f 456/873 455/874 457/875
f 457/875 455/874 453/876
vt 0.534667969 0.939393939
vt 0.543457031 0.939393939
vt 0.534667969 0.946969697
vt 0.543457031 0.946969697
f 448/877 449/878 446/879
f 446/879 449/878 458/880
vt 0.528320312 0.946969697
vt 0.530273438 0.939393939
vt 0.534667969 0.939393939
vt 0.534667969 0.931818182
f 459/881 454/882 448/883
f 448/883 454/882 456/884
vt 0.528320312 0.946969697
vt 0.534667969 0.939393939
vt 0.530761719 0.954545455
vt 0.534667969 0.946969697
f 459/885 448/886 447/887
f 447/887 448/886 446/888
vt 0.533691406 0.856060606
vt 0.54296875 0.840909091
vt 0.534667969 0.909090909
vt 0.543457031 0.893939394
f 450/889 460/890 455/891
f 455/891 460/890 453/892
vt 0.528320312 0.810606061
vt 0.54296875 0.810606061
vt 0.533691406 0.856060606
vt 0.54296875 0.840909091
f 452/893 451/894 450/895
f 450/895 451/894 460/896
vt 0.534667969 0.931818182
vt 0.543457031 0.931818182
vt 0.534667969 0.939393939
vt 0.543457031 0.939393939
f 456/897 457/898 448/899
f 448/899 457/898 449/900
vt 0.530273438 0.909090909
vt 0.534667969 0.909090909
vt 0.528320312 0.810606061
vt 0.533691406 0.856060606
f 467/901 468/902 465/903
f 465/903 468/902 463/904
vt 0.534667969 0.924242424
vt 0.543457031 0.924242424
vt 0.534667969 0.909090909
vt 0.543457031 0.893939394
f 469/905 470/906 468/907
f 468/907 470/906 466/908
vt 0.534667969 0.946969697
vt 0.543457031 0.946969697
vt 0.534667969 0.954545455
vt 0.543457031 0.954545455
f 446/909 458/910 461/911
f 461/911 458/910 462/912
vt 0.528320312 0.96969697
vt 0.534667969 0.954545455
vt 0.530273438 0.977272727
vt 0.534667969 0.962121212
f 471/913 461/914 467/915
f 467/915 461/914 469/916
vt 0.528320312 0.96969697
vt 0.530761719 0.954545455
vt 0.534667969 0.954545455
vt 0.534667969 0.946969697
f 471/917 447/918 461/919
f 461/919 447/918 446/920
vt 0.534667969 0.909090909
vt 0.543457031 0.893939394
vt 0.533691406 0.856060606
vt 0.54296875 0.840909091
f 468/921 466/922 463/923
f 463/923 466/922 472/924
vt 0.528320312 0.810606061
vt 0.533691406 0.856060606
vt 0.54296875 0.810606061
vt 0.54296875 0.840909091
f 465/925 463/926 464/927
f 464/927 463/926 472/928
vt 0.534667969 0.954545455
vt 0.543457031 0.954545455
vt 0.534667969 0.962121212
vt 0.543457031 0.962121212
f 461/929 462/930 469/931
f 469/931 462/930 470/932
vt 0.534667969 0.909090909
vt 0.534667969 0.924242424
vt 0.530273438 0.909090909
f 455/933 456/934 454/935
vt 0.534667969 0.924242424
vt 0.534667969 0.909090909
vt 0.530273438 0.909090909
f 469/936 468/937 467/938
usemtl bloc245_sub2_atlas_material_0024
vt 0.809570312 0.931818182
vt 0.812988281 0.931818182
vt 0.809570312 0.984848485
vt 0.812988281 0.984848485
f 477/939 478/940 480/941
f 480/941 478/940 479/942
vt 0.810058594 0.984848485
vt 0.810546875 0.984848485
vt 0.810058594 0.984848485
vt 0.810546875 0.984848485
f 480/943 479/944 477/945
f 477/945 479/944 478/946
usemtl bloc245_sub2_atlas_material_001f
vt 0.799804688 0.954545455
vt 0.800292969 0.946969697
vt 0.807128906 0.962121212
vt 0.807128906 0.954545455
f 498/947 499/948 509/949
f 509/949 499/948 503/950
vt 0.80078125 0.977272727
vt 0.807128906 0.96969697
vt 0.807128906 0.977272727
vt 0.807128906 0.977272727
f 500/951 508/952 506/953
f 506/953 508/952 510/954
vt 0.799804688 0.954545455
vt 0.807128906 0.96969697
vt 0.799804688 0.96969697
vt 0.80078125 0.977272727
f 498/955 508/956 502/957
f 502/957 508/956 500/958
vt 0.799804688 0.954545455
vt 0.807128906 0.962121212
vt 0.807128906 0.96969697
vt 0.807128906 0.96969697
f 498/959 509/960 508/961
f 508/961 509/960 511/962
usemtl bloc245_sub2_atlas_material_0020
vt 0.315429688 0.977272727
vt 0.325683594 0.946969697
vt 0.315429688 0.75
vt 0.328613281 0.75
f 508/963 511/964 512/965
f 512/965 511/964 504/966
vt 0.306152344 0.939393939
vt 0.315429688 0.977272727
vt 0.301757812 0.75
vt 0.315429688 0.75
f 510/967 508/968 507/969
f 507/969 508/968 512/970
usemtl bloc245_sub2_atlas_material_0021
vt 0.4375 0.984848485
vt 0.479003906 0.984848485
vt 0.4375 0.810606061
vt 0.479003906 0.810606061
f 509/971 503/972 504/973
f 504/973 503/972 505/974
usemtl bloc245_sub2_atlas_material_001f
vt 0.80078125 0.977272727
vt 0.807128906 0.977272727
vt 0.805664062 0.984848485
vt 0.807128906 0.984848485
f 500/975 506/976 501/977
f 501/977 506/976 525/978
usemtl bloc245_sub2_atlas_material_0023
vt 0.331054688 0.75
vt 0.331054688 0.984848485
vt 0.357910156 0.75
vt 0.357910156 0.984848485
f 527/979 530/980 529/981
f 529/981 530/980 528/982
usemtl bloc245_sub2_atlas_material_0021
vt 0.479003906 0.984848485
vt 0.484863281 0.924242424
vt 0.479003906 0.810606061
vt 0.482421875 0.878787879
f 503/983 533/984 505/985
f 505/985 533/984 534/986
usemtl bloc245_sub2_atlas_material_0023
vt 0.331054688 0.75
vt 0.357910156 0.75
vt 0.331054688 0.984848485
vt 0.357910156 0.984848485
f 536/987 538/988 535/989
f 535/989 538/988 537/990
usemtl bloc245_sub2_atlas_material_0022
vt 0.108398438 0.742424242
vt 0.124511719 0.840909091
vt 0.108398438 0.984848485
vt 0.120605469 0.984848485
f 527/991 474/992 530/993
f 530/993 474/992 541/994
vt 0.108398438 0.954545455
vt 0.108398438 0.507575758
vt 0.131347656 0.984848485
vt 0.124511719 0.75
f 527/995 475/996 474/997
f 474/997 475/996 542/998
vt 0.123535156 0.954545455
vt 0.135253906 0.507575758
vt 0.131347656 0.984848485
vt 0.134765625 0.810606061
f 542/999 518/1000 474/1001
f 474/1001 518/1000 520/1002
vt 0.123535156 0.954545455
vt 0.108398438 0.507575758
vt 0.135253906 0.507575758
vt 0.123046875 0.507575758
f 542/1003 475/1004 518/1005
f 518/1005 475/1004 521/1006
vt 0.108398438 0.954545455
vt 0.131347656 0.984848485
vt 0.124511719 0.75
vt 0.134765625 0.810606061
f 536/1007 473/1008 546/1009
f 546/1009 473/1008 519/1010
vt 0.123535156 0.954545455
vt 0.134765625 0.810606061
vt 0.123046875 0.507575758
vt 0.135253906 0.507575758
f 546/1011 519/1012 521/1013
f 521/1013 519/1012 518/1014
vt 0.108398438 0.954545455
vt 0.123535156 0.954545455
vt 0.108398438 0.507575758
vt 0.123046875 0.507575758
f 536/1015 546/1016 475/1017
f 475/1017 546/1016 521/1018
vt 0.108398438 0.742424242
vt 0.108398438 0.984848485
vt 0.124511719 0.840909091
vt 0.120605469 0.984848485
f 536/1019 535/1020 473/1021
f 473/1021 535/1020 545/1022
usemtl bloc245_sub2_atlas_material_0024
vt 0.811035156 0.931818182
vt 0.811035156 0.939393939
vt 0.810546875 0.931818182
f 481/1023 482/1024 483/1025
usemtl bloc245_sub2_atlas_material_001f
vt 0.80078125 0.939393939
vt 0.807128906 0.946969697
vt 0.800292969 0.946969697
f 497/1026 503/1027 499/1028
usemtl bloc245_sub2_atlas_material_0020
vt 0.328613281 0.893939394
vt 0.328613281 0.75
vt 0.325683594 0.946969697
f 509/1029 504/1030 511/1031
vt 0.302246094 0.916666667
vt 0.306152344 0.939393939
vt 0.301757812 0.75
f 506/1032 510/1033 507/1034
usemtl bloc245_sub2_atlas_material_0021
vt 0.434082031 0.810606061
vt 0.4296875 0.878787879
vt 0.430664062 0.96969697
f 507/1035 526/1036 506/1037
vt 0.430664062 0.96969697
vt 0.4296875 0.878787879
vt 0.426757812 0.924242424
f 506/1038 526/1039 525/1040
usemtl bloc245_sub2_atlas_material_001f
vt 0.807128906 0.931818182
vt 0.807128906 0.939393939
vt 0.80078125 0.939393939
f 533/1041 503/1042 497/1043
usemtl untextured_black
f 475 527 513
f 513 527 529
f 538 536 513
f 513 536 475
f 476 548 491
f 491 548 547
f 476 491 523
f 523 491 493
f 522 524 493
f 493 524 523
f 492 494 491
f 491 494 493
f 494 492 486
f 486 492 487
f 486 487 485
f 485 487 484
f 484 489 514
f 514 489 515
f 492 539 495
f 495 539 540
f 543 544 493
f 493 544 522
f 488 490 485
f 485 490 486
f 517 490 516
f 516 490 488
f 494 496 531
f 531 496 532
usemtl bloc245_sub2_atlas_material_0025
vt 0.422363281 0.75
vt 0.422363281 0.78030303
vt 0.422363281 0.757575758
vt 0.422363281 0.787878788
f 549/1044 551/1045 552/1046
f 552/1046 551/1045 550/1047
usemtl bloc245_sub2_atlas_material_0026
vt 0.138671875 0.954545455
vt 0.138671875 0.772727273
vt 0.141601562 0.984848485
vt 0.148925781 0.984848485
f 555/1048 556/1049 554/1050
f 554/1050 556/1049 553/1051
vt 0.148925781 0.984848485
vt 0.138671875 0.772727273
vt 0.151855469 0.954545455
vt 0.151855469 0.772727273
f 553/1052 556/1053 558/1054
f 558/1054 556/1053 559/1055
vt 0.137695312 0.568181818
vt 0.152832031 0.568181818
vt 0.138671875 0.772727273
vt 0.151855469 0.772727273
f 557/1056 560/1057 556/1058
f 556/1058 560/1057 559/1059
vt 0.138671875 0.954545455
vt 0.138671875 0.772727273
vt 0.141601562 0.984848485
vt 0.148925781 0.984848485
f 562/1060 563/1061 561/1062
f 561/1062 563/1061 565/1063
vt 0.148925781 0.984848485
vt 0.138671875 0.772727273
vt 0.151855469 0.954545455
vt 0.151855469 0.772727273
f 565/1064 563/1065 566/1066
f 566/1066 563/1065 567/1067
vt 0.137695312 0.568181818
vt 0.152832031 0.568181818
vt 0.138671875 0.772727273
vt 0.151855469 0.772727273
f 564/1068 568/1069 563/1070
f 563/1070 568/1069 567/1071
usemtl polygon_colour_808080
vt 0.8671875 0.3828125
vt 0.96875 0.38671875
vt 0.890625 0.25390625
vt 0.94921875 0.25390625
f 569/1072 570/1073 576/1074
f 576/1074 570/1073 573/1075
vt 0.96484375 0.390625
vt 0.99609375 0.390625
vt 0.96484375 0.2578125
vt 0.99609375 0.2578125
f 572/1076 574/1077 571/1078
f 571/1078 574/1077 575/1079
vt 0.99609375 0.2578125
vt 0.94921875 0.25390625
vt 0.96875 0.38671875
f 571/1080 573/1081 570/1082
vt 0.98828125 0.4375
vt 0.97265625 0.38671875
vt 0.921875 0.41015625
f 572/1083 570/1084 582/1085
vt 0.91796875 0.41015625
vt 0.96875 0.38671875
vt 0.8671875 0.3828125
f 582/1086 570/1087 569/1088
vt 0.921875 0.41015625
vt 0.8671875 0.3828125
vt 0.84765625 0.4375
f 582/1089 569/1090 574/1091
vt 0.921875 0.41015625
vt 0.98828125 0.4375
vt 0.84765625 0.4375
f 582/1092 574/1093 572/1094
vt 0.99609375 0.390625
vt 0.99609375 0.2578125
vt 0.96875 0.38671875
f 572/1095 571/1096 570/1097
vt 0.8671875 0.3828125
vt 0.84375 0.25390625
vt 0.84375 0.375
f 569/1098 575/1099 574/1100
vt 0.8671875 0.3828125
vt 0.890625 0.25390625
vt 0.84375 0.25390625
f 569/1101 576/1102 575/1103
vt 0.83984375 0.3203125
vt 0.82421875 0.4375
vt 0.8046875 0.31640625
f 577/1104 576/1105 579/1106
vt 0.82421875 0.4375
vt 0.8359375 0.32421875
vt 0.80078125 0.32421875
f 573/1107 581/1108 578/1109
vt 0.82421875 0.4375
vt 0.80078125 0.40625
vt 0.78515625 0.43359375
f 573/1110 580/1111 576/1112
vt 0.80078125 0.40625
vt 0.78515625 0.31640625
vt 0.78515625 0.43359375
f 580/1113 579/1114 576/1115
vt 0.83984375 0.31640625
vt 0.83984375 0.4375
vt 0.82421875 0.4375
f 577/1116 575/1117 576/1118
vt 0.8046875 0.31640625
vt 0.80078125 0.40625
vt 0.82421875 0.4375
f 578/1119 580/1120 573/1121
vt 0.83984375 0.4375
vt 0.8359375 0.32421875
vt 0.82421875 0.4375
f 571/1122 581/1123 573/1124
vt 0.78515625 0.0625
vt 0.78125 0.00390625
vt 0.87109375 0.0625
vt 0.87109375 0.00390625
f 594/1125 595/1126 592/1127
f 592/1127 595/1126 591/1128
vt 0.88671875 0.03125
vt 0.78125 0.0625
vt 0.890625 0.0625
vt 0.78125 0.00390625
f 597/1129 596/1130 593/1131
f 593/1131 596/1130 594/1132
vt 0.80859375 0.52734375
vt 0.83984375 0.484375
vt 0.79296875 0.484375
vt 0.828125 0.45703125
f 598/1133 599/1134 603/1135
f 603/1135 599/1134 601/1136
vt 0.78515625 0.0625
vt 0.87109375 0.0625
vt 0.78125 0.00390625
vt 0.87109375 0.00390625
f 615/1137 613/1138 616/1139
f 616/1139 613/1138 612/1140
vt 0.88671875 0.03125
vt 0.890625 0.0625
vt 0.78125 0.0625
vt 0.78125 0.00390625
f 618/1141 614/1142 617/1143
f 617/1143 614/1142 615/1144
vt 0.8125 0.546875
vt 0.796875 0.4921875
vt 0.83984375 0.49609375
vt 0.8359375 0.45703125
f 619/1145 624/1146 620/1147
f 620/1147 624/1146 622/1148
vt 0.828125 0.0390625
vt 0.98828125 0.046875
vt 0.91015625 0.04296875
f 589/1149 583/1150 585/1151
vt 0.94921875 0.015625
vt 0.8125 0.046875
vt 0.8359375 0.01171875
f 586/1152 588/1153 584/1154
vt 0.87109375 0.0625
vt 0.98828125 0.046875
vt 0.828125 0.0390625
f 588/1155 583/1156 589/1157
vt 0.890625 0.0625
vt 0.95703125 0.04296875
vt 0.796875 0.015625
f 589/1158 585/1159 587/1160
vt 0.99609375 0.00390625
vt 0.796875 0.015625
vt 0.95703125 0.04296875
f 584/1161 587/1162 585/1163
vt 0.9921875 0.046875
vt 0.87109375 0.0625
vt 0.87109375 0.03125
f 584/1164 588/1165 590/1166
vt 0.8125 0.046875
vt 0.94921875 0.015625
vt 0.98828125 0.046875
f 588/1167 586/1168 583/1169
vt 0.83984375 0.05078125
vt 0.921875 0.05078125
vt 0.8828125 0.02734375
f 590/1170 589/1171 587/1172
vt 0.83984375 0.05078125
vt 0.8828125 0.0625
vt 0.921875 0.05078125
f 590/1173 588/1174 589/1175
vt 0.9921875 0.046875
vt 0.87109375 0.03125
vt 0.87109375 0.00390625
f 584/1176 590/1177 587/1178
vt 0.88671875 0.02734375
vt 0.8203125 0.05859375
vt 0.8984375 0.0546875
f 586/1179 585/1180 583/1181
vt 0.796875 0.03125
vt 0.8203125 0.05859375
vt 0.88671875 0.02734375
f 584/1182 585/1183 586/1184
vt 0.8828125 0.00390625
vt 0.78125 0.0078125
vt 0.78125 0.0625
f 591/1185 595/1186 596/1187
vt 0.78125 0.00390625
vt 0.78125 0.0234375
vt 0.83984375 0.0234375
f 594/1188 592/1189 593/1190
vt 0.93359375 0.04296875
vt 0.8828125 0.04296875
vt 0.8828125 0.0625
f 591/1191 597/1192 592/1193
vt 0.78125 0.0625
vt 0.99609375 0.05859375
vt 0.97265625 0.00390625
f 595/1194 594/1195 596/1196
vt 0.78125 0.0625
vt 0.88671875 0.03125
vt 0.8828125 0.00390625
f 596/1197 597/1198 591/1199
vt 0.8828125 0.04296875
vt 0.83203125 0.046875
vt 0.8828125 0.0625
f 597/1200 593/1201 592/1202
vt 0.78125 0.4765625
vt 0.80859375 0.52734375
vt 0.79296875 0.484375
f 602/1203 598/1204 603/1205
vt 0.79296875 0.484375
vt 0.828125 0.45703125
vt 0.78515625 0.45703125
f 603/1206 601/1207 600/1208
vt 0.98828125 0.046875
vt 0.828125 0.0390625
vt 0.95703125 0.04296875
f 604/1209 610/1210 606/1211
vt 0.8046875 0.04296875
vt 0.98046875 0.015625
vt 0.85546875 0.01171875
f 609/1212 607/1213 605/1214
vt 0.98828125 0.046875
vt 0.87109375 0.0625
vt 0.828125 0.0390625
f 604/1215 609/1216 610/1217
vt 0.95703125 0.04296875
vt 0.890625 0.0625
vt 0.796875 0.015625
f 606/1218 610/1219 608/1220
vt 0.796875 0.015625
vt 0.99609375 0.00390625
vt 0.95703125 0.04296875
f 608/1221 605/1222 606/1223
vt 0.87109375 0.0625
vt 0.9921875 0.046875
vt 0.87109375 0.03125
f 609/1224 605/1225 611/1226
vt 0.98046875 0.015625
vt 0.8046875 0.04296875
vt 0.9765625 0.046875
f 607/1227 609/1228 604/1229
vt 0.921875 0.05078125
vt 0.83984375 0.05078125
vt 0.8828125 0.02734375
f 610/1230 611/1231 608/1232
vt 0.8828125 0.0625
vt 0.83984375 0.05078125
vt 0.921875 0.05078125
f 609/1233 611/1234 610/1235
vt 0.87109375 0.03125
vt 0.9921875 0.046875
vt 0.87109375 0.00390625
f 611/1236 605/1237 608/1238
vt 0.93359375 0.03125
vt 0.83984375 0.03515625
vt 0.89453125 0.046875
f 606/1239 607/1240 604/1241
vt 0.93359375 0.03125
vt 0.87109375 0.01953125
vt 0.83984375 0.03515625
f 606/1242 605/1243 607/1244
vt 0.78125 0.0078125
vt 0.8828125 0.00390625
vt 0.78125 0.0625
f 616/1245 612/1246 617/1247
vt 0.78125 0.0234375
vt 0.78125 0.00390625
vt 0.83984375 0.0234375
f 613/1248 615/1249 614/1250
vt 0.8828125 0.04296875
vt 0.93359375 0.04296875
vt 0.8828125 0.0625
f 618/1251 612/1252 613/1253
vt 0.99609375 0.05859375
vt 0.78125 0.0625
vt 0.97265625 0.00390625
f 615/1254 616/1255 617/1256
vt 0.88671875 0.03125
vt 0.78125 0.0625
vt 0.8828125 0.00390625
f 618/1257 617/1258 612/1259
vt 0.83203125 0.046875
vt 0.8828125 0.04296875
vt 0.8828125 0.0625
f 614/1260 618/1261 613/1262
vt 0.8125 0.546875
vt 0.78515625 0.4765625
vt 0.796875 0.4921875
f 619/1263 623/1264 624/1265
vt 0.8359375 0.45703125
vt 0.796875 0.4921875
vt 0.78515625 0.45703125
f 622/1266 624/1267 621/1268

o mesh_01_id_4
usemtl bloc245_sub2_atlas_material_0027
vt 0.0009765625 0.0227272727
vt 0.0009765625 0.5
vt 0.0317382812 0.0227272727
vt 0.0317382812 0.5
f 625/1269 627/1270 626/1271
f 626/1271 627/1270 628/1272
usemtl bloc245_sub2_atlas_material_0029
vt 0.0751953125 0.507575758
vt 0.0751953125 0.984848485
vt 0.105957031 0.507575758
vt 0.105957031 0.984848485
f 629/1273 630/1274 631/1275
f 631/1275 630/1274 632/1276
usemtl polygon_colour_808080
vt 0.875 0.5625
vt 0.93359375 0.5625
vt 0.875 0.44140625
vt 0.93359375 0.44140625
f 641/1277 634/1278 640/1279
f 640/1279 634/1278 633/1280
vt 0.875 0.5625
vt 0.93359375 0.5625
vt 0.875 0.44140625
vt 0.93359375 0.44140625
f 642/1281 635/1282 641/1283
f 641/1283 635/1282 634/1284
vt 0.875 0.5625
vt 0.93359375 0.5625
vt 0.875 0.44140625
vt 0.93359375 0.44140625
f 643/1285 636/1286 642/1287
f 642/1287 636/1286 635/1288
vt 0.875 0.5625
vt 0.93359375 0.5625
vt 0.875 0.44140625
vt 0.93359375 0.44140625
f 644/1289 637/1290 643/1291
f 643/1291 637/1290 636/1292
vt 0.875 0.5625
vt 0.93359375 0.5625
vt 0.875 0.44140625
vt 0.93359375 0.44140625
f 645/1293 638/1294 644/1295
f 644/1295 638/1294 637/1296
vt 0.875 0.5625
vt 0.93359375 0.5625
vt 0.875 0.44140625
vt 0.93359375 0.44140625
f 646/1297 639/1298 645/1299
f 645/1299 639/1298 638/1300
vt 0.875 0.5625
vt 0.93359375 0.5625
vt 0.875 0.44140625
vt 0.93359375 0.44140625
f 640/1301 633/1302 646/1303
f 646/1303 633/1302 639/1304

o mesh_02_id_2
usemtl bloc245_sub2_atlas_material_0027
vt 0.0009765625 0.0227272727
vt 0.0009765625 0.5
vt 0.0317382812 0.0227272727
vt 0.0317382812 0.5
f 647/1305 649/1306 648/1307
f 648/1307 649/1306 650/1308
usemtl bloc245_sub2_atlas_material_0029
vt 0.0751953125 0.507575758
vt 0.0751953125 0.984848485
vt 0.105957031 0.507575758
vt 0.105957031 0.984848485
f 651/1309 652/1310 653/1311
f 653/1311 652/1310 654/1312
usemtl polygon_colour_808080
vt 0.875 0.5625
vt 0.93359375 0.5625
vt 0.875 0.44140625
vt 0.93359375 0.44140625
f 663/1313 656/1314 662/1315
f 662/1315 656/1314 655/1316
vt 0.875 0.5625
vt 0.93359375 0.5625
vt 0.875 0.44140625
vt 0.93359375 0.44140625
f 664/1317 657/1318 663/1319
f 663/1319 657/1318 656/1320
vt 0.875 0.5625
vt 0.93359375 0.5625
vt 0.875 0.44140625
vt 0.93359375 0.44140625
f 665/1321 658/1322 664/1323
f 664/1323 658/1322 657/1324
vt 0.875 0.5625
vt 0.93359375 0.5625
vt 0.875 0.44140625
vt 0.93359375 0.44140625
f 666/1325 659/1326 665/1327
f 665/1327 659/1326 658/1328
vt 0.875 0.5625
vt 0.93359375 0.5625
vt 0.875 0.44140625
vt 0.93359375 0.44140625
f 667/1329 660/1330 666/1331
f 666/1331 660/1330 659/1332
vt 0.875 0.5625
vt 0.93359375 0.5625
vt 0.875 0.44140625
vt 0.93359375 0.44140625
f 668/1333 661/1334 667/1335
f 667/1335 661/1334 660/1336
vt 0.875 0.5625
vt 0.93359375 0.5625
vt 0.875 0.44140625
vt 0.93359375 0.44140625
f 662/1337 655/1338 668/1339
f 668/1339 655/1338 661/1340

o mesh_03_id_3
usemtl bloc245_sub2_atlas_material_0027
vt 0.0009765625 0.0227272727
vt 0.0009765625 0.5
vt 0.0317382812 0.0227272727
vt 0.0317382812 0.5
f 669/1341 671/1342 670/1343
f 670/1343 671/1342 672/1344
usemtl bloc245_sub2_atlas_material_0029
vt 0.0751953125 0.507575758
vt 0.0751953125 0.984848485
vt 0.105957031 0.507575758
vt 0.105957031 0.984848485
f 673/1345 674/1346 675/1347
f 675/1347 674/1346 676/1348
usemtl polygon_colour_808080
vt 0.875 0.5625
vt 0.93359375 0.5625
vt 0.875 0.44140625
vt 0.93359375 0.44140625
f 685/1349 678/1350 684/1351
f 684/1351 678/1350 677/1352
vt 0.875 0.5625
vt 0.93359375 0.5625
vt 0.875 0.44140625
vt 0.93359375 0.44140625
f 686/1353 679/1354 685/1355
f 685/1355 679/1354 678/1356
vt 0.875 0.5625
vt 0.93359375 0.5625
vt 0.875 0.44140625
vt 0.93359375 0.44140625
f 687/1357 680/1358 686/1359
f 686/1359 680/1358 679/1360
vt 0.875 0.5625
vt 0.93359375 0.5625
vt 0.875 0.44140625
vt 0.93359375 0.44140625
f 688/1361 681/1362 687/1363
f 687/1363 681/1362 680/1364
vt 0.875 0.5625
vt 0.93359375 0.5625
vt 0.875 0.44140625
vt 0.93359375 0.44140625
f 689/1365 682/1366 688/1367
f 688/1367 682/1366 681/1368
vt 0.875 0.5625
vt 0.93359375 0.5625
vt 0.875 0.44140625
vt 0.93359375 0.44140625
f 690/1369 683/1370 689/1371
f 689/1371 683/1370 682/1372
vt 0.875 0.5625
vt 0.93359375 0.5625
vt 0.875 0.44140625
vt 0.93359375 0.44140625
f 684/1373 677/1374 690/1375
f 690/1375 677/1374 683/1376

o mesh_04_id_1
usemtl bloc245_sub2_atlas_material_0027
vt 0.0009765625 0.0227272727
vt 0.0009765625 0.5
vt 0.0317382812 0.0227272727
vt 0.0317382812 0.5
f 691/1377 693/1378 692/1379
f 692/1379 693/1378 694/1380
usemtl bloc245_sub2_atlas_material_0029
vt 0.0751953125 0.507575758
vt 0.0751953125 0.984848485
vt 0.105957031 0.507575758
vt 0.105957031 0.984848485
f 695/1381 696/1382 697/1383
f 697/1383 696/1382 698/1384
usemtl polygon_colour_808080
vt 0.875 0.5625
vt 0.93359375 0.5625
vt 0.875 0.44140625
vt 0.93359375 0.44140625
f 707/1385 700/1386 706/1387
f 706/1387 700/1386 699/1388
vt 0.875 0.5625
vt 0.93359375 0.5625
vt 0.875 0.44140625
vt 0.93359375 0.44140625
f 708/1389 701/1390 707/1391
f 707/1391 701/1390 700/1392
vt 0.875 0.5625
vt 0.93359375 0.5625
vt 0.875 0.44140625
vt 0.93359375 0.44140625
f 709/1393 702/1394 708/1395
f 708/1395 702/1394 701/1396
vt 0.875 0.5625
vt 0.93359375 0.5625
vt 0.875 0.44140625
vt 0.93359375 0.44140625
f 710/1397 703/1398 709/1399
f 709/1399 703/1398 702/1400
vt 0.875 0.5625
vt 0.93359375 0.5625
vt 0.875 0.44140625
vt 0.93359375 0.44140625
f 711/1401 704/1402 710/1403
f 710/1403 704/1402 703/1404
vt 0.875 0.5625
vt 0.93359375 0.5625
vt 0.875 0.44140625
vt 0.93359375 0.44140625
f 712/1405 705/1406 711/1407
f 711/1407 705/1406 704/1408
vt 0.875 0.5625
vt 0.93359375 0.5625
vt 0.875 0.44140625
vt 0.93359375 0.44140625
f 706/1409 699/1410 712/1411
f 712/1411 699/1410 705/1412

o mesh_05_id_5
usemtl polygon_colour_808080
vt 0.91015625 0.21875
vt 0.9296875 0.1640625
vt 0.99609375 0.20703125
vt 0.99609375 0.16015625
f 723/1413 726/1414 714/1415
f 714/1415 726/1414 716/1416
vt 0.9296875 0.1640625
vt 0.98046875 0.125
vt 0.99609375 0.16015625
vt 0.99609375 0.125
f 726/1417 725/1418 716/1419
f 716/1419 725/1418 717/1420
vt 0.8125 0.19140625
vt 0.8359375 0.1640625
vt 0.90625 0.25
vt 0.91015625 0.21875
f 713/1421 728/1422 715/1423
f 715/1423 728/1422 723/1424
vt 0.83203125 0.16015625
vt 0.9140625 0.20703125
vt 0.83984375 0.20703125
vt 0.9140625 0.20703125
f 736/1425 724/1426 713/1427
f 713/1427 724/1426 728/1428
vt 0.890625 0.11328125
vt 0.97265625 0.078125
vt 0.9296875 0.1640625
vt 0.98046875 0.125
f 724/1429 727/1430 726/1431
f 726/1431 727/1430 725/1432
vt 0.97265625 0.078125
vt 0.99609375 0.078125
vt 0.98046875 0.125
vt 0.99609375 0.125
f 727/1433 722/1434 725/1435
f 725/1435 722/1434 721/1436
vt 0.91015625 0.21875
vt 0.99609375 0.20703125
vt 0.9296875 0.1640625
vt 0.99609375 0.16015625
f 730/1437 714/1438 733/1439
f 733/1439 714/1438 716/1440
vt 0.9296875 0.1640625
vt 0.99609375 0.16015625
vt 0.98046875 0.125
vt 0.99609375 0.125
f 733/1441 716/1442 732/1443
f 732/1443 716/1442 717/1444
vt 0.8359375 0.2421875
vt 0.89453125 0.24609375
vt 0.83984375 0.20703125
vt 0.9140625 0.20703125
f 715/1445 730/1446 713/1447
f 713/1447 730/1446 735/1448
vt 0.83203125 0.16015625
vt 0.83984375 0.20703125
vt 0.890625 0.16015625
vt 0.9140625 0.20703125
f 736/1449 713/1450 731/1451
f 731/1451 713/1450 735/1452
vt 0.9296875 0.1640625
vt 0.98046875 0.125
vt 0.890625 0.11328125
vt 0.97265625 0.078125
f 733/1453 732/1454 731/1455
f 731/1455 732/1454 734/1456
vt 0.98046875 0.125
vt 0.99609375 0.125
vt 0.97265625 0.078125
vt 0.99609375 0.078125
f 732/1457 721/1458 734/1459
f 734/1459 721/1458 722/1460
vt 0.9375 0.19140625
vt 0.984375 0.21875
vt 0.9140625 0.2421875
f 723/1461 714/1462 715/1463
vt 0.9296875 0.1640625
vt 0.91015625 0.21875
vt 0.8359375 0.1640625
f 726/1464 723/1465 728/1466
vt 0.890625 0.11328125
vt 0.9296875 0.1640625
vt 0.8359375 0.1640625
f 724/1467 726/1468 728/1469
vt 0.91796875 0.09375
vt 0.91796875 0.09375
vt 0.91796875 0.09375
f 727/1470 724/1471 720/1472
vt 0.953125 0.11328125
vt 0.953125 0.11328125
vt 0.953125 0.11328125
f 724/1473 719/1474 720/1475
vt 0.95703125 0.1171875
vt 0.95703125 0.1171875
vt 0.95703125 0.1171875
f 719/1476 724/1477 718/1478
vt 0.97265625 0.234375
vt 0.9375 0.19140625
vt 0.91796875 0.23046875
f 714/1479 730/1480 715/1481
vt 0.9296875 0.1640625
vt 0.87109375 0.17578125
vt 0.91015625 0.21875
f 733/1482 735/1483 730/1484
vt 0.86328125 0.1171875
vt 0.859375 0.06640625
vt 0.8359375 0.12890625
f 731/1485 729/1486 736/1487
vt 0.9296875 0.1640625
vt 0.890625 0.11328125
vt 0.8359375 0.1640625
f 733/1488 731/1489 735/1490
vt 0.921875 0.09375
vt 0.91796875 0.09375
vt 0.91796875 0.09765625
f 734/1491 720/1492 731/1493
vt 0.953125 0.11328125
vt 0.953125 0.11328125
vt 0.953125 0.11328125
f 731/1494 720/1495 719/1496
vt 0.95703125 0.1171875
vt 0.95703125 0.12109375
vt 0.95703125 0.1171875
f 719/1497 729/1498 731/1499
vt 0.859375 0.06640625
vt 0.8125 0.06640625
vt 0.8359375 0.12890625
f 729/1500 718/1501 736/1502
vt 0.8125 0.11328125
vt 0.8359375 0.12890625
vt 0.8125 0.06640625
f 724/1503 736/1504 718/1505

o mesh_06_id_6
usemtl bloc245_sub2_atlas_material_002a
vt 0.403320312 0.977272727
vt 0.41796875 0.984848485
vt 0.403808594 0.75
vt 0.418457031 0.765151515
f 739/1506 738/1507 737/1508
f 737/1508 738/1507 740/1509

# Renderer-wide PSX texture pass. Hide this object to inspect the local car-atlas body alone.

o runtime_shared_overlay
usemtl runtime_shared_texture
vt 0.65625 1
vt 0.68359375 1
vt 0.63671875 0.81640625
vt 0.68359375 0.81640625
f 283/1510 279/1511 278/1512
f 278/1512 279/1511 285/1513
vt 0.52734375 1
vt 0.59375 1
vt 0.546875 0.81640625
vt 0.59375 0.81640625
f 282/1514 280/1515 287/1516
f 287/1516 280/1515 284/1517
vt 0.5 1
vt 0.52734375 1
vt 0.5 0.81640625
vt 0.546875 0.81640625
f 281/1518 282/1519 286/1520
f 286/1520 282/1519 287/1521
vt 0.59375 1
vt 0.65625 1
vt 0.59375 0.81640625
vt 0.63671875 0.81640625
f 280/1522 283/1523 284/1524
f 284/1524 283/1523 278/1525
vt 0.5 1
vt 0.5234375 1
vt 0.5 0.81640625
vt 0.52734375 0.81640625
f 288/1526 289/1527 308/1528
f 308/1528 289/1527 307/1529
vt 0.5234375 1
vt 0.59375 0.81640625
vt 0.52734375 0.81640625
vt 0.5546875 0.81640625
f 289/1530 309/1531 307/1532
f 307/1532 309/1531 310/1533
vt 0.65625 1
vt 0.68359375 1
vt 0.65625 0.81640625
vt 0.68359375 0.81640625
f 292/1534 291/1535 311/1536
f 311/1536 291/1535 312/1537
vt 0.5234375 1
vt 0.59375 1
vt 0.59375 0.81640625
vt 0.65625 1
f 289/1538 290/1539 309/1540
f 309/1540 290/1539 292/1541
vt 0.65625 1
vt 0.65625 0.81640625
vt 0.59375 0.81640625
vt 0.62890625 0.81640625
f 292/1542 311/1543 309/1544
f 309/1544 311/1543 313/1545
vt 0.68359375 0.95703125
vt 0.68359375 1
vt 0.68359375 0.81640625
vt 0.5546875 0.81640625
f 298/1546 296/1547 315/1548
f 315/1548 296/1547 316/1549
vt 0.5546875 0.81640625
vt 0.68359375 1
vt 0.5546875 1
vt 0.6484375 1
f 316/1550 296/1551 306/1552
f 306/1552 296/1551 297/1553
vt 0.68359375 0.95703125
vt 0.68359375 0.81640625
vt 0.68359375 1
vt 0.5546875 0.81640625
f 295/1554 318/1555 293/1556
f 293/1556 318/1555 319/1557
vt 0.5546875 0.81640625
vt 0.5546875 1
vt 0.68359375 1
vt 0.6484375 1
f 319/1558 302/1559 293/1560
f 293/1560 302/1559 294/1561
vt 0.54296875 1
vt 0.5390625 0.81640625
vt 0.64453125 1
vt 0.62109375 0.81640625
f 304/1562 320/1563 303/1564
f 303/1564 320/1563 314/1565
vt 0.5 1
vt 0.5 0.81640625
vt 0.54296875 1
vt 0.5390625 0.81640625
f 305/1566 321/1567 304/1568
f 304/1568 321/1567 320/1569
vt 0.54296875 1
vt 0.64453125 1
vt 0.5390625 0.81640625
vt 0.62109375 0.81640625
f 300/1570 299/1571 322/1572
f 322/1572 299/1571 317/1573
vt 0.5 1
vt 0.54296875 1
vt 0.5 0.81640625
vt 0.5390625 0.81640625
f 301/1574 300/1575 323/1576
f 323/1576 300/1575 322/1577
vt 0.5 0.67578125
vt 0.83984375 0.67578125
vt 0.5 0.71875
vt 0.83984375 0.71875
f 362/1578 365/1579 363/1580
f 363/1580 365/1579 364/1581
vt 0.5 0.67578125
vt 0.83984375 0.67578125
vt 0.5 0.71875
vt 0.83984375 0.71875
f 366/1582 369/1583 367/1584
f 367/1584 369/1583 368/1585
